<svg width="400" height="399" viewBox="0 0 400 399" fill="none" xmlns="http://www.w3.org/2000/svg">
<g id="SVG-Logo">
<g id="Tree">
<path d="M136.5 319.5C132.54 319.28 113.037 297.165 84.5 298.5C55.9627 299.834 82.5 293.5 96.5 296C110.5 298.5 123.332 300.559 131.5 308.5C137.482 315.386 144.252 314.978 152 316.5C165.386 313.276 168.714 309.7 171 300L172.5 273L172.34 273.166C169.488 276.128 167.841 277.838 161.5 279C149.423 280.19 144.589 275.958 141.5 259C141.077 246.355 140.847 237.427 140.5 204C129.332 183.769 126.343 172.037 71.5 157L82 154C92.8411 158.378 97.8683 160.487 101.5 162.5C118.699 168.629 126.711 174.577 139.5 187.5V166.5C130.273 143.823 122.508 130.181 77.5 113.5C91.4042 113.063 98.6066 115.351 110.5 123.5C123.895 132.695 130.818 138.289 139.5 151C140.374 136.75 139.59 125.861 138 106C125.089 96.1247 121.62 92.184 124.5 89C128.272 96.1635 131.436 98.4476 138 101C137.811 84.8639 139.291 79.6498 142.5 74C146.106 121.778 146.696 150.832 150 187.5C154.515 168.614 151.951 141.948 151 89C155.135 68.4204 156.431 57.5961 173 40.5C175.207 39.7021 176.158 39.7282 176.5 42C160.988 59.7166 158.45 69.5649 154.5 89L155.5 119C156.384 119.487 156.862 119.643 157.5 118.5C168.441 96.4025 173.98 83.6017 180 58C179.932 62.7868 180.158 65.0532 177.5 78C169.241 99.8924 161.781 111.518 159.5 131C161.555 132.035 162.098 131.698 163 131C170.243 124.187 171.394 119.906 174.5 115C176.554 116.326 176.326 120.514 164 137.5C159.675 152.455 159.115 160.595 159 175C156.38 186.467 154.502 191.98 150.5 204L150 259C150.725 269.462 155.529 274.627 161.5 275C168.638 273.174 170.567 270.776 172.5 265.5L174.5 180.5C178.4 146.7 186.444 122.823 199.95 96.8175C200.699 95.3187 201.545 93.7232 202.5 92C201.629 93.6157 200.779 95.2206 199.95 96.8175C195.73 105.258 194.563 110.633 194 118.5C214.267 98.4472 221.755 88.5397 248 76.5C239.436 82.2101 234.04 85.2332 229 92C241.285 91.6945 246.415 91.3414 253.5 90.5C242.933 93.5198 236.549 94.5658 224.5 95.5C212.58 103.018 206.807 109.552 198 125C205.784 124.299 211.85 120.042 227.5 101.5C225.151 109.365 229.169 109.45 197 133C177.275 176.578 183.623 178.913 184.5 180.5C187.607 170.143 189.195 163.743 193.5 158C190.796 167.824 190.089 171.418 191.5 171.5H194.5C222.028 149.63 239.423 138.291 256.5 111.5C246.256 128.226 241.493 137.91 226 153C245.402 149.907 255.856 147.841 266 137.5C260.507 144.042 261.388 147.191 231 157C227.042 156.882 224.65 157.074 220 158C201.971 169.539 189.662 172.895 182.5 200.5L181.5 288C184.946 302.268 189.95 306.685 201.5 311.5C208.283 312.171 211.443 312.08 216.5 311.5C226.076 308.82 234.5 305 239 300.5C243.5 296 229.5 291.5 233.5 286C237.5 280.5 253 287 252.5 289C252 291 238 285 238.5 289C239 293 243 292.5 244.5 296C246 299.5 243.174 302.433 240.5 305.5L272.5 299C282.338 298.489 292.5 306 289.5 307.5C286.5 309 284.784 300.595 272.5 303C275.894 305.859 278.539 306.62 277.5 314.5C271.293 322.04 262.5 314.5 264.5 313.5C266.5 312.5 272.658 317.25 272.5 310C271.311 308.013 269.853 306.919 266 305C233.803 312.919 217.032 318.509 199.5 318C190.915 316.098 187.019 313.302 180.5 307.5C176.781 313.301 174.036 315.793 168.5 319.5C158.425 325.625 140.46 319.72 136.5 319.5Z" fill="black"/>
<path d="M84.5 298.5C113.037 297.165 132.54 319.28 136.5 319.5C140.46 319.72 158.425 325.625 168.5 319.5C174.036 315.793 176.781 313.301 180.5 307.5C187.019 313.302 190.915 316.098 199.5 318C217.032 318.509 233.803 312.919 266 305C269.853 306.919 271.311 308.013 272.5 310C272.658 317.25 266.5 312.5 264.5 313.5C262.5 314.5 271.293 322.04 277.5 314.5C278.539 306.62 275.894 305.859 272.5 303C284.784 300.595 286.5 309 289.5 307.5C292.5 306 282.338 298.489 272.5 299L240.5 305.5C243.174 302.433 246 299.5 244.5 296C243 292.5 239 293 238.5 289C238 285 252 291 252.5 289C253 287 237.5 280.5 233.5 286C229.5 291.5 243.5 296 239 300.5C234.5 305 226.076 308.82 216.5 311.5C211.443 312.08 208.283 312.171 201.5 311.5C189.95 306.685 184.946 302.268 181.5 288L182.5 200.5C189.662 172.895 201.971 169.539 220 158C224.65 157.074 227.042 156.882 231 157C261.388 147.191 260.507 144.042 266 137.5C255.856 147.841 245.402 149.907 226 153C241.493 137.91 246.256 128.226 256.5 111.5C239.423 138.291 222.028 149.63 194.5 171.5H191.5C190.089 171.418 190.796 167.824 193.5 158C189.195 163.743 187.607 170.142 184.5 180.5C183.623 178.913 177.275 176.578 197 133C229.169 109.45 225.151 109.365 227.5 101.5C211.85 120.042 205.784 124.299 198 125C206.807 109.552 212.58 103.018 224.5 95.5C236.549 94.5658 242.933 93.5198 253.5 90.5C246.415 91.3414 241.285 91.6945 229 92C234.04 85.2332 239.436 82.2101 248 76.5C221.755 88.5397 214.267 98.4472 194 118.5C194.663 109.236 196.164 103.428 202.5 92C187.448 119.928 178.64 144.625 174.5 180.5L172.5 265.5C170.567 270.776 168.638 273.174 161.5 275C155.529 274.627 150.725 269.462 150 259L150.5 204C154.502 191.98 156.38 186.467 159 175C159.115 160.595 159.675 152.455 164 137.5C176.326 120.514 176.554 116.326 174.5 115C171.394 119.906 170.243 124.187 163 131C162.098 131.698 161.555 132.035 159.5 131C161.781 111.518 169.241 99.8924 177.5 78C180.158 65.0532 179.932 62.7868 180 58C173.98 83.6017 168.441 96.4025 157.5 118.5C156.862 119.643 156.384 119.487 155.5 119L154.5 89C158.45 69.5649 160.988 59.7166 176.5 42C176.158 39.7282 175.208 39.7021 173 40.5C156.431 57.5961 155.135 68.4204 151 89C151.951 141.948 154.515 168.614 150 187.5C146.696 150.832 146.106 121.778 142.5 74C139.291 79.6498 137.811 84.8639 138 101C131.436 98.4476 128.272 96.1635 124.5 89C121.62 92.184 125.089 96.1247 138 106C139.59 125.861 140.374 136.75 139.5 151C130.818 138.289 123.895 132.695 110.5 123.5C98.6066 115.351 91.4042 113.063 77.5 113.5C122.508 130.181 130.273 143.823 139.5 166.5V187.5C126.711 174.577 118.699 168.629 101.5 162.5C97.8683 160.487 92.8411 158.378 82 154L71.5 157C126.343 172.037 129.332 183.769 140.5 204C140.847 237.427 141.077 246.355 141.5 259C144.589 275.958 149.423 280.19 161.5 279C167.958 277.817 169.548 276.064 172.5 273L171 300C168.714 309.7 165.386 313.276 152 316.5C144.252 314.978 137.482 315.386 131.5 308.5C123.332 300.559 110.5 298.5 96.5 296C82.5 293.5 55.9627 299.834 84.5 298.5Z" stroke="black"/>
</g>
<g id="Static-letters">
<path id="X" d="M115.532 219.364L115.526 217.049L134.695 217.003L134.7 219.318L127.324 222.577L112.644 243.951L129.411 268.954L136.13 271.639L136.136 273.915L114.618 273.967L114.612 271.69L121.319 269.127L108.519 249.942L95.2144 269.344L101.709 271.721L101.715 273.997L82.1358 274.044L82.1304 271.767L89.619 268.74L105.6 245.627L90.0303 222.28L83.1616 219.441L83.1561 217.126L104.077 217.076L104.083 219.391L98.1228 222.261L109.8 239.597L121.804 222.127L115.532 219.364Z" fill="#9D1A1A"/>
<path id="l" d="M208.5 273.329L200.881 274C199.627 274 199 273.553 199 272.658C199 271.853 199.878 271.048 201.634 270.243C203.452 269.438 204.487 268.588 204.738 267.694C205.051 266.799 205.208 265.994 205.208 265.278V197.651C205.208 192.016 203.766 188.75 200.881 187.856C200.38 187.677 200.129 187.096 200.129 186.112C200.129 185.128 200.348 184.591 200.787 184.501C202.417 183.965 206.054 182.176 211.698 179.134H211.792L211.886 179C212.262 179 212.45 179.313 212.45 179.939L212.262 182.355C212.137 184.054 212.012 186.246 211.886 188.929C211.823 191.524 211.792 194.61 211.792 198.188V265.278C211.792 267.067 212.168 268.23 212.921 268.767C213.736 269.304 214.802 269.885 216.119 270.511C217.373 271.227 218 271.943 218 272.658C218 273.553 217.373 274 216.119 274L208.5 273.329Z" fill="#9D1A1A"/>
<path id="e" d="M252.3 215C256.38 215 259.78 216.095 262.5 218.284C265.22 220.473 266.58 223.72 266.58 228.023C266.58 231.496 264.691 235.384 260.913 239.687C257.211 243.915 252.829 247.803 247.767 251.351C242.78 254.9 238.511 257.391 234.96 258.825C236.849 261.845 239.002 263.959 241.42 265.167C243.838 266.299 246.671 266.866 249.92 266.866C253.547 266.866 257.136 265.96 260.687 264.148C264.313 262.26 267.298 259.845 269.64 256.9L271 259.278C267.298 264.035 263.369 267.696 259.213 270.263C255.058 272.754 249.958 274 243.913 274C239.304 274 235.187 272.868 231.56 270.603C227.933 268.338 225.1 265.318 223.06 261.543C221.02 257.693 220 253.541 220 249.086C220 243.5 221.511 238.064 224.533 232.779C227.556 227.495 231.56 223.229 236.547 219.983C241.533 216.661 246.784 215 252.3 215ZM246.407 222.134C243.082 222.134 240.098 223.191 237.453 225.305C234.884 227.419 232.844 230.137 231.333 233.459C229.898 236.781 229.18 240.216 229.18 243.764C229.18 248.445 230.276 252.446 232.467 255.768C235.64 254.333 239.078 252.182 242.78 249.313C246.482 246.369 249.618 243.198 252.187 239.8C254.756 236.403 256.04 233.308 256.04 230.514C256.04 224.928 252.829 222.134 246.407 222.134Z" fill="#9D1A1A"/>
<path id="m" d="M283.502 225.785C285.895 222.507 288.574 219.917 291.541 218.013C294.507 216.004 297.617 215 300.871 215C304.411 215 307.522 215.952 310.201 217.855C312.976 219.652 314.986 222.296 316.23 225.785C318.813 222.19 321.732 219.494 324.986 217.696C328.335 215.899 331.78 215 335.321 215C340.488 215 344.603 216.85 347.665 220.551C350.823 224.146 352.402 229.38 352.402 236.253V258.298C352.402 264.114 353.072 268.132 354.411 270.352C355.751 272.573 356.947 273.789 358 274H337.617C338.766 273.789 339.962 272.573 341.206 270.352C342.545 268.132 343.215 264.061 343.215 258.14V240.059C343.215 236.464 342.785 233.609 341.923 231.495C341.062 229.38 339.914 227.635 338.478 226.261C336.278 224.252 333.646 223.247 330.584 223.247C327.234 223.247 324.268 224.516 321.684 227.054C319.196 229.486 317.952 232.922 317.952 237.363V258.14C317.952 264.061 318.574 268.132 319.818 270.352C321.158 272.573 322.402 273.789 323.55 274H303.167C304.316 273.789 305.512 272.573 306.756 270.352C308.096 268.132 308.766 264.061 308.766 258.14V240.059C308.766 236.464 308.335 233.609 307.474 231.495C306.612 229.38 305.464 227.635 304.029 226.261C301.828 224.252 299.196 223.247 296.134 223.247C292.689 223.247 289.722 224.516 287.234 227.054C284.746 229.486 283.502 232.922 283.502 237.363V258.14C283.502 264.167 284.172 268.29 285.512 270.511C286.852 272.625 288.096 273.789 289.244 274H268.861C270.01 273.789 271.206 272.573 272.45 270.352C273.694 268.132 274.316 264.061 274.316 258.14V234.191C274.316 229.75 273.646 226.737 272.306 225.151C271.062 223.459 269.627 222.613 268 222.613L283.502 215V225.785Z" fill="#9D1A1A"/>
<path id="dot" d="M260 191.5C260 198.404 254.404 204 247.5 204C240.596 204 235 198.404 235 191.5C235 184.596 240.596 179 247.5 179C254.404 179 260 184.596 260 191.5Z" fill="#9D1A1A"/>
</g>
<g id="Leaves">
<g id="Y-leaf6">
<path d="M216.888 175.682C218.72 171.19 218.31 169.617 213.5 169.5C212.888 176.104 214.15 176.331 216.888 175.682Z" fill="#2C6E6B"/>
<path d="M216.5 152.332C219.955 149.291 219.76 147.334 216.5 143.5C202.144 153.128 212.495 151.373 216.5 152.332Z" fill="#2C6E6B"/>
<path d="M234.632 134.988C239.515 133.162 239.854 131.215 236.326 126.156C232.442 125.209 232.68 127.974 234.632 134.988Z" fill="#2C6E6B"/>
<path d="M241.408 122.623C246.737 120.722 247.273 119.361 243.949 116.441C236.118 118.88 237.183 120.227 241.408 122.623Z" fill="#2C6E6B"/>
<path d="M254.112 112.025C253.41 111.148 256.297 106.717 250.724 106.726C249.27 112.249 254.815 112.903 254.112 112.025Z" fill="#2C6E6B"/>
<path d="M262.582 102.31C265.315 94.7948 264.169 92.7395 256.653 93.4776C253.695 103.269 255.065 105.114 262.582 102.31Z" fill="#2C6E6B"/>
<path d="M264.276 92.5943C267.047 93.2595 267.88 92.8045 266.817 89.0615C263.977 87.1076 263.272 87.6126 264.276 92.5943Z" fill="#2C6E6B"/>
<path d="M270.205 105.843C276.751 103.382 278.76 101.382 277.827 96.1272C271.453 95.1987 269.067 96.3289 270.205 105.843Z" fill="#2C6E6B"/>
<path d="M265.97 118.208C266.817 117.324 273.234 115.291 271.052 112.025C264.62 108.559 265.123 119.091 265.97 118.208Z" fill="#2C6E6B"/>
<path d="M260.888 129.689C266.325 127.177 267.379 125.233 262.582 119.974C250.932 129.726 250.614 131.827 260.888 129.689Z" fill="#2C6E6B"/>
<path d="M249.877 142.054C248.516 140.132 248.296 138.785 250.724 134.989C259.409 134.782 260.231 135.998 249.877 142.054Z" fill="#2C6E6B"/>
<path d="M243.949 148.237C246.489 148.237 246.136 144.812 243.949 142.938C240.352 145.007 241.408 148.237 243.949 148.237Z" fill="#2C6E6B"/>
<path d="M270.205 135.872C285.144 135.666 287.455 122.266 282.927 122.865C273.052 121.931 269.869 124.292 270.205 135.872Z" fill="#2C6E6B"/>
<path d="M265.123 150.003C275.047 156.123 279.919 158.458 279.521 148.237C271.074 142.275 267.953 142.738 265.123 150.003Z" fill="#2C6E6B"/>
<path d="M261.735 152.653C265.109 155.488 265.287 157.039 261.735 159.719C258.9 157.377 258.048 155.956 261.735 152.653Z" fill="#2C6E6B"/>
<path d="M269.358 161.485C272.629 163.023 272.413 164.577 268.511 168.551C264.453 165.13 263.767 163.451 269.358 161.485Z" fill="#2C6E6B"/>
<path d="M254.112 163.251C257.048 159.529 257.601 157.645 253.406 155.378C249.686 154.512 248.663 155.076 254.112 163.251Z" fill="#2C6E6B"/>
<path d="M258.347 170.317C260.032 166.971 259.335 165.879 255.806 165.018C253.841 171.544 254.491 172.563 258.347 170.317Z" fill="#2C6E6B"/>
<path d="M242.255 165.901C246.802 166.198 247.637 164.739 245.642 158.835C241.01 157.702 239.858 158.768 242.255 165.901Z" fill="#2C6E6B"/>
<path d="M233.785 158.505C240.144 160.688 232.938 167.338 235.479 172.637C225.527 179.795 227.426 156.323 233.785 158.505Z" fill="#2C6E6B"/>
<path d="M282.909 122.624C282.915 122.705 282.927 122.865 282.927 122.865M282.927 122.865C287.455 122.266 285.144 135.666 270.205 135.872C269.869 124.292 273.052 121.931 282.927 122.865ZM253.265 155.303C253.313 155.328 253.359 155.353 253.406 155.378M253.406 155.378C257.601 157.645 257.048 159.529 254.112 163.251C248.663 155.076 249.686 154.512 253.406 155.378ZM216.888 175.682C218.72 171.19 218.31 169.617 213.5 169.5C212.888 176.104 214.15 176.331 216.888 175.682ZM216.5 152.332C219.955 149.291 219.76 147.334 216.5 143.5C202.144 153.128 212.495 151.373 216.5 152.332ZM234.632 134.988C239.515 133.162 239.854 131.215 236.326 126.156C232.442 125.209 232.68 127.974 234.632 134.988ZM241.408 122.623C246.737 120.722 247.273 119.361 243.949 116.441C236.118 118.88 237.183 120.227 241.408 122.623ZM254.112 112.025C253.41 111.148 256.297 106.717 250.724 106.726C249.27 112.249 254.815 112.903 254.112 112.025ZM262.582 102.31C265.315 94.7948 264.169 92.7395 256.653 93.4776C253.695 103.269 255.065 105.114 262.582 102.31ZM264.276 92.5943C267.047 93.2595 267.88 92.8045 266.817 89.0615C263.977 87.1076 263.272 87.6126 264.276 92.5943ZM270.205 105.843C276.751 103.382 278.76 101.382 277.827 96.1272C271.453 95.1987 269.067 96.3289 270.205 105.843ZM265.97 118.208C266.817 117.324 273.234 115.291 271.052 112.025C264.62 108.559 265.123 119.091 265.97 118.208ZM260.888 129.689C266.325 127.177 267.379 125.233 262.582 119.974C250.932 129.726 250.614 131.827 260.888 129.689ZM249.877 142.054C248.516 140.132 248.296 138.785 250.724 134.989C259.409 134.782 260.231 135.998 249.877 142.054ZM243.949 148.237C246.489 148.237 246.136 144.812 243.949 142.938C240.352 145.007 241.408 148.237 243.949 148.237ZM265.123 150.003C275.047 156.123 279.919 158.458 279.521 148.237C271.074 142.275 267.953 142.738 265.123 150.003ZM261.735 152.653C265.109 155.488 265.287 157.039 261.735 159.719C258.9 157.377 258.048 155.956 261.735 152.653ZM269.358 161.485C272.629 163.023 272.413 164.577 268.511 168.551C264.453 165.13 263.767 163.451 269.358 161.485ZM258.347 170.317C260.032 166.971 259.335 165.879 255.806 165.018C253.841 171.544 254.491 172.563 258.347 170.317ZM242.255 165.901C246.802 166.198 247.637 164.739 245.642 158.835C241.01 157.702 239.858 158.768 242.255 165.901ZM233.785 158.505C240.144 160.688 232.938 167.338 235.479 172.637C225.527 179.795 227.426 156.323 233.785 158.505Z" stroke="#2C6E6B"/>
</g>
<g id="Y-leaf5">
<path d="M186 108.465C189.834 108.302 190.791 107.614 189.509 104.893C187.5 103.102 186.841 104.427 186 108.465Z" fill="#2C6E6B"/>
<path d="M194.774 95.0717C197.36 95.6566 198.593 95.6293 198.283 91.5002C193.432 92.7016 191.389 93.4127 194.774 95.0717Z" fill="#2C6E6B"/>
<path d="M200.915 87.036C202.485 81.7698 200.942 81.1457 197.406 80.786C195.176 82.9756 193.209 84.1533 200.915 87.036Z" fill="#2C6E6B"/>
<path d="M208.811 82.5714C213.198 83.4643 211.766 74.4471 207.934 70.0714C202.082 78.9298 204.425 81.6786 208.811 82.5714Z" fill="#2C6E6B"/>
<path d="M221.972 77.2143C222.328 71.115 220.593 68.892 214.953 66.5C215.874 73.3586 216.394 77.1977 221.972 77.2143Z" fill="#2C6E6B"/>
<path d="M228.113 73.6429C234.261 66.7979 235.445 59.3872 225.481 54C220.039 61.848 221.522 66.1241 228.113 73.6429Z" fill="#2C6E6B"/>
<path d="M203.547 93.2857C206.921 92.513 208.221 93.6511 208.811 96.8571C205.891 97.4772 204.446 97.3775 203.547 93.2857Z" fill="#2C6E6B"/>
<path d="M211.443 89.7143C216.028 90.6351 216.643 89.3379 215.83 85.25C210.359 85.5042 209.736 86.6155 211.443 89.7143Z" fill="#2C6E6B"/>
<path d="M219.34 85.25C222.382 84.8528 223.366 84.2723 221.972 81.6786C219.167 80.1649 218.461 80.7341 219.34 85.25Z" fill="#2C6E6B"/>
<path d="M224.604 82.5714C225.869 83.4959 229.16 81.0106 228.113 78.1071C226.756 79.0309 223.338 81.6469 224.604 82.5714Z" fill="#2C6E6B"/>
<path d="M234.255 76.3214C238.037 74.2383 239.581 72.8737 238.642 69.1786C232.907 71.6272 231.509 73.1542 234.255 76.3214Z" fill="#2C6E6B"/>
<path d="M245.66 68.2857C251.966 65.2897 253.901 63.3174 250.047 58.4643C239.983 64.4747 241.109 66.0816 245.66 68.2857Z" fill="#2C6E6B"/>
<path d="M256.189 69.1786C258.73 71.1308 272.963 72.7266 269.349 55.7857C260.594 52.6471 253.647 67.2264 256.189 69.1786Z" fill="#2C6E6B"/>
<path d="M252.679 81.6786C257.587 82.8792 259.538 82.5935 259.698 78.1071C254.142 74.4541 253.436 76.725 252.679 81.6786Z" fill="#2C6E6B"/>
<path d="M265.84 81.6786C274.435 81.6307 278.58 80.7964 279 70.9643C267.155 72.5701 264.402 74.9651 265.84 81.6786Z" fill="#2C6E6B"/>
<path d="M197.406 154C203.291 152.935 204.707 151.244 201.792 145.071C196.833 146.994 196.426 149.215 197.406 154Z" fill="#2C6E6B"/>
<path d="M210.377 139.714C215.171 134.345 214.504 132.109 209.5 129C206.774 135.053 204.977 138.609 210.377 139.714Z" fill="#2C6E6B"/>
<path d="M221.972 132.571C227.568 132.59 228.824 130.948 228.113 125.429C221.327 123.735 219.963 125.278 221.972 132.571Z" fill="#2C6E6B"/>
<path d="M225.481 115.607C233.207 117.541 237.555 116.857 236.009 109.357C228.907 106.337 225.472 109.473 225.481 115.607Z" fill="#2C6E6B"/>
<path d="M244.783 101.321C249.405 99.0779 250.151 97.3236 244.783 92.3929C239.318 98.4768 238.529 100.807 244.783 101.321Z" fill="#2C6E6B"/>
<path d="M186 108.465C189.834 108.302 190.791 107.614 189.509 104.893C187.5 103.102 186.841 104.427 186 108.465Z" stroke="#2C6E6B"/>
<path d="M194.774 95.0717C197.36 95.6566 198.593 95.6293 198.283 91.5002C193.432 92.7016 191.389 93.4127 194.774 95.0717Z" stroke="#2C6E6B"/>
<path d="M200.915 87.036C202.485 81.7698 200.942 81.1457 197.406 80.786C195.176 82.9756 193.209 84.1533 200.915 87.036Z" stroke="#2C6E6B"/>
<path d="M208.811 82.5714C213.198 83.4643 211.766 74.4471 207.934 70.0714C202.082 78.9298 204.425 81.6786 208.811 82.5714Z" stroke="#2C6E6B"/>
<path d="M221.972 77.2143C222.328 71.115 220.593 68.892 214.953 66.5C215.874 73.3586 216.394 77.1977 221.972 77.2143Z" stroke="#2C6E6B"/>
<path d="M228.113 73.6429C234.261 66.7979 235.445 59.3872 225.481 54C220.039 61.848 221.522 66.1241 228.113 73.6429Z" stroke="#2C6E6B"/>
<path d="M203.547 93.2857C206.921 92.513 208.221 93.6511 208.811 96.8571C205.891 97.4772 204.446 97.3775 203.547 93.2857Z" stroke="#2C6E6B"/>
<path d="M211.443 89.7143C216.028 90.6351 216.643 89.3379 215.83 85.25C210.359 85.5042 209.736 86.6155 211.443 89.7143Z" stroke="#2C6E6B"/>
<path d="M219.34 85.25C222.382 84.8528 223.366 84.2723 221.972 81.6786C219.167 80.1649 218.461 80.7341 219.34 85.25Z" stroke="#2C6E6B"/>
<path d="M224.604 82.5714C225.869 83.4959 229.16 81.0106 228.113 78.1071C226.756 79.0309 223.338 81.6469 224.604 82.5714Z" stroke="#2C6E6B"/>
<path d="M234.255 76.3214C238.037 74.2383 239.581 72.8737 238.642 69.1786C232.907 71.6272 231.509 73.1542 234.255 76.3214Z" stroke="#2C6E6B"/>
<path d="M245.66 68.2857C251.966 65.2897 253.901 63.3174 250.047 58.4643C239.983 64.4747 241.109 66.0816 245.66 68.2857Z" stroke="#2C6E6B"/>
<path d="M256.189 69.1786C258.73 71.1308 272.963 72.7266 269.349 55.7857C260.594 52.6471 253.647 67.2264 256.189 69.1786Z" stroke="#2C6E6B"/>
<path d="M252.679 81.6786C257.587 82.8792 259.538 82.5935 259.698 78.1071C254.142 74.4541 253.436 76.725 252.679 81.6786Z" stroke="#2C6E6B"/>
<path d="M265.84 81.6786C274.435 81.6307 278.58 80.7964 279 70.9643C267.155 72.5701 264.402 74.9651 265.84 81.6786Z" stroke="#2C6E6B"/>
<path d="M197.406 154C203.291 152.935 204.707 151.244 201.792 145.071C196.833 146.994 196.426 149.215 197.406 154Z" stroke="#2C6E6B"/>
<path d="M210.377 139.714C215.171 134.345 214.504 132.109 209.5 129C206.774 135.053 204.977 138.609 210.377 139.714Z" stroke="#2C6E6B"/>
<path d="M221.972 132.571C227.568 132.59 228.824 130.948 228.113 125.429C221.327 123.735 219.963 125.278 221.972 132.571Z" stroke="#2C6E6B"/>
<path d="M225.481 115.607C233.207 117.541 237.555 116.857 236.009 109.357C228.907 106.337 225.472 109.473 225.481 115.607Z" stroke="#2C6E6B"/>
<path d="M244.783 101.321C249.405 99.0779 250.151 97.3236 244.783 92.3929C239.318 98.4768 238.529 100.807 244.783 101.321Z" stroke="#2C6E6B"/>
</g>
<g id="Y-leaf4">
<path d="M128.328 119C133.613 118.721 135.484 118.068 133.594 114.532C127.51 112.933 126.748 114.236 128.328 119Z" fill="#2C6E6B"/>
<path d="M128.328 108.277C133.413 107.197 133.328 105.316 129.206 100.234C126.202 105.562 124.325 108.706 128.328 108.277Z" fill="#2C6E6B"/>
<path d="M122.185 101.128C125.096 105.012 125.327 106.569 121.307 107.383C118.259 104.901 118.245 103.529 122.185 101.128Z" fill="#2C6E6B"/>
<path d="M112.531 102.021C113.409 106.489 110.428 105.717 113.409 107.383C118.113 105.529 111.654 97.5532 112.531 102.021Z" fill="#2C6E6B"/>
<path d="M115.164 96.6596C119.424 97.4544 120.846 96.8011 119.591 91.4628C117.921 84.6337 116.938 87.8842 115.164 96.6596Z" fill="#2C6E6B"/>
<path d="M116.042 81.4681C117.806 71.7638 113.654 69.4935 102 68.0638C106.143 81.8695 108.892 86.8849 116.042 81.4681Z" fill="#2C6E6B"/>
<path d="M130.961 78.7872C140.92 72.0632 140.669 68.5825 133.594 62.7021C126.959 71.4198 124.897 75.5868 130.961 78.7872Z" fill="#2C6E6B"/>
<path d="M132.294 88.5704C135.782 88.2766 136.32 86.9068 135.805 83.2087C132.34 83.052 132.144 84.8409 132.294 88.5704Z" fill="#2C6E6B"/>
<path d="M145.88 62.7021C152.817 62.1953 155.183 61.0814 152.901 55.5532C146.306 56.7376 143.724 57.8673 145.88 62.7021Z" fill="#2C6E6B"/>
<path d="M157.289 52.8723C163.043 50.7769 157.635 35.4519 142.37 35C139.878 44.9907 151.535 54.9678 157.289 52.8723Z" fill="#2C6E6B"/>
<path d="M173.086 53.766C173.104 58.758 171.773 59.37 166.943 56.4468L166.937 56.4122C166.723 55.0012 166.602 54.1994 173.086 53.766Z" fill="#2C6E6B"/>
<path d="M166.065 71.6383C172.505 72.5488 175.274 72.4337 172.208 66.2766C165.779 61.4023 165.606 64.603 166.065 71.6383Z" fill="#2C6E6B"/>
<path d="M161.677 75.2128C165.233 75.9462 167.271 76.1888 168.698 85.0425C162.997 88.2794 161.662 85.6443 161.677 75.2128Z" fill="#2C6E6B"/>
<path d="M159.044 98.4468C158.167 102.915 165.551 96.5685 162.555 93.0851C159.355 90.4077 159.922 93.9787 159.044 98.4468Z" fill="#2C6E6B"/>
<path d="M167.82 115.426C171.681 117.828 173.113 116.689 174.841 111.851C174.836 109.055 173.616 109.353 167.82 115.426Z" fill="#2C6E6B"/>
<path d="M173.963 106.489C178.572 104.637 179.476 103.322 176.596 100.234C173.053 100.33 171.718 100.992 173.963 106.489Z" fill="#2C6E6B"/>
<path d="M179.229 93.0851C186.198 90.0044 187.893 90.9519 185.372 99.3404C179.907 99.3867 178.266 98.2576 179.229 93.0851Z" fill="#2C6E6B"/>
<path d="M182.739 83.2553C179.936 88.1561 191.504 84.6067 190.638 76.1064C188.089 71.8892 185.543 78.3545 182.739 83.2553Z" fill="#2C6E6B"/>
<path d="M187.127 68.9574C198.848 66.5801 204.191 61.4819 201.169 54.6596C188.09 60.3062 185.652 65.4377 187.127 68.9574Z" fill="#2C6E6B"/>
<path d="M119.552 91.2979C119.565 91.3533 119.578 91.4083 119.591 91.4628M119.591 91.4628C120.846 96.8011 119.424 97.4544 115.164 96.6596C116.938 87.8842 117.921 84.6337 119.591 91.4628ZM128.328 119C133.613 118.721 135.484 118.068 133.594 114.532C127.51 112.933 126.748 114.236 128.328 119ZM128.328 108.277C133.413 107.197 133.328 105.316 129.206 100.234C126.202 105.562 124.325 108.706 128.328 108.277ZM122.185 101.128C125.096 105.012 125.327 106.569 121.307 107.383C118.259 104.901 118.245 103.529 122.185 101.128ZM112.531 102.021C113.409 106.489 110.428 105.717 113.409 107.383C118.113 105.529 111.654 97.5532 112.531 102.021ZM116.042 81.4681C117.806 71.7638 113.654 69.4935 102 68.0638C106.143 81.8696 108.892 86.8849 116.042 81.4681ZM130.961 78.7872C140.92 72.0632 140.669 68.5825 133.594 62.7021C126.959 71.4198 124.897 75.5868 130.961 78.7872ZM132.294 88.5704C135.782 88.2766 136.32 86.9068 135.805 83.2087C132.34 83.052 132.144 84.8409 132.294 88.5704ZM145.88 62.7021C152.817 62.1953 155.183 61.0814 152.901 55.5532C146.306 56.7376 143.724 57.8673 145.88 62.7021ZM157.289 52.8723C163.043 50.7769 157.635 35.4519 142.37 35C139.878 44.9907 151.535 54.9678 157.289 52.8723ZM166.943 56.4468C171.773 59.37 173.104 58.758 173.086 53.766C166.549 54.2029 166.726 55.0143 166.943 56.4468ZM166.065 71.6383C172.505 72.5488 175.274 72.4337 172.208 66.2766C165.779 61.4023 165.606 64.603 166.065 71.6383ZM161.677 75.2128C165.233 75.9462 167.271 76.1888 168.698 85.0425C162.997 88.2794 161.662 85.6443 161.677 75.2128ZM159.044 98.4468C158.167 102.915 165.551 96.5685 162.555 93.0851C159.355 90.4077 159.922 93.9787 159.044 98.4468ZM167.82 115.426C171.681 117.828 173.113 116.689 174.841 111.851C174.836 109.055 173.616 109.353 167.82 115.426ZM173.963 106.489C178.572 104.637 179.476 103.322 176.596 100.234C173.053 100.33 171.718 100.992 173.963 106.489ZM179.229 93.0851C186.198 90.0044 187.893 90.9519 185.372 99.3404C179.907 99.3867 178.266 98.2576 179.229 93.0851ZM182.739 83.2553C179.936 88.1561 191.504 84.6067 190.638 76.1064C188.089 71.8892 185.543 78.3545 182.739 83.2553ZM187.127 68.9574C198.848 66.5801 204.191 61.4819 201.169 54.6596C188.09 60.3062 185.652 65.4377 187.127 68.9574Z" stroke="#2C6E6B"/>
</g>
<g id="Y-leaf3">
<path d="M118.96 151C118.96 151 116.301 138.643 122.505 143.056C128.708 147.469 118.96 151 118.96 151Z" fill="#2C6E6B"/>
<path d="M111.87 140.959C115.068 143.352 116.584 143.099 118.074 135.663C114.936 134.02 113.646 135.536 111.87 140.959Z" fill="#2C6E6B"/>
<path d="M110.984 131.25C111.432 134.819 110.278 135.629 106.553 135.663C107.387 131.306 108.522 130.825 110.984 131.25Z" fill="#2C6E6B"/>
<path d="M103.008 127.719C104.78 136.546 96.3924 137.151 86.1698 138.311C89.7142 130.759 101.236 118.893 103.008 127.719Z" fill="#2C6E6B"/>
<path d="M83.5112 118.893C85.123 123.783 83.7111 125.186 78.1938 125.954C78.2092 120.234 79.5052 118.877 83.5112 118.893Z" fill="#2C6E6B"/>
<path d="M65.7868 119.775C71.0764 119.612 72.5653 118.361 71.9903 113.597C67.5164 110.653 66.6068 113.178 65.7868 119.775Z" fill="#2C6E6B"/>
<path d="M72.8765 106.536C79.8764 106.637 67.9426 93.5387 65.7868 99.4744C63.631 105.41 65.8767 106.434 72.8765 106.536Z" fill="#2C6E6B"/>
<path d="M91.4871 106.536C88.8285 101.24 100.97 93.9325 85.2836 88C70.9078 92.8111 94.1458 111.831 91.4871 106.536Z" fill="#2C6E6B"/>
<path d="M103.894 95.0612C111.395 100.14 111.054 103.922 104.78 111.831C96.6742 111.043 97.8318 106.367 103.894 95.0612Z" fill="#2C6E6B"/>
<path d="M111.87 117.127C114.55 115.371 114.851 113.87 112.756 110.066C107.762 115.778 107.272 117.512 111.87 117.127Z" fill="#2C6E6B"/>
<path d="M118.074 118.01C122.82 118.505 123.702 117.426 121.619 112.714C118.738 111.701 117.743 112.411 118.074 118.01Z" fill="#2C6E6B"/>
<path d="M125.163 125.954C128.708 124.189 132.013 125.431 129.594 119.775C124.88 120.361 121.619 127.719 125.163 125.954Z" fill="#2C6E6B"/>
<path d="M132.253 133.898C138.938 133.071 138.284 131.806 137.57 128.602C131.595 128.533 125.569 134.724 132.253 133.898Z" fill="#2C6E6B"/>
<path d="M118.96 151C118.96 151 116.301 138.643 122.505 143.056C128.708 147.469 118.96 151 118.96 151Z" stroke="#2C6E6B"/>
<path d="M111.87 140.959C115.068 143.352 116.584 143.099 118.074 135.663C114.936 134.02 113.646 135.536 111.87 140.959Z" stroke="#2C6E6B"/>
<path d="M110.984 131.25C111.432 134.819 110.278 135.629 106.553 135.663C107.387 131.306 108.522 130.825 110.984 131.25Z" stroke="#2C6E6B"/>
<path d="M103.008 127.719C104.78 136.546 96.3924 137.151 86.1698 138.311C89.7142 130.759 101.236 118.893 103.008 127.719Z" stroke="#2C6E6B"/>
<path d="M83.5112 118.893C85.123 123.783 83.7111 125.186 78.1938 125.954C78.2092 120.234 79.5052 118.877 83.5112 118.893Z" stroke="#2C6E6B"/>
<path d="M65.7868 119.775C71.0764 119.612 72.5653 118.361 71.9903 113.597C67.5164 110.653 66.6068 113.178 65.7868 119.775Z" stroke="#2C6E6B"/>
<path d="M72.8765 106.536C79.8764 106.637 67.9426 93.5387 65.7868 99.4744C63.631 105.41 65.8767 106.434 72.8765 106.536Z" stroke="#2C6E6B"/>
<path d="M91.4871 106.536C88.8285 101.24 100.97 93.9325 85.2836 88C70.9078 92.8111 94.1458 111.831 91.4871 106.536Z" stroke="#2C6E6B"/>
<path d="M103.894 95.0612C111.395 100.14 111.054 103.922 104.78 111.831C96.6742 111.043 97.8318 106.367 103.894 95.0612Z" stroke="#2C6E6B"/>
<path d="M111.87 117.127C114.55 115.371 114.851 113.87 112.756 110.066C107.762 115.778 107.272 117.512 111.87 117.127Z" stroke="#2C6E6B"/>
<path d="M118.074 118.01C122.82 118.505 123.702 117.426 121.619 112.714C118.738 111.701 117.743 112.411 118.074 118.01Z" stroke="#2C6E6B"/>
<path d="M125.163 125.954C128.708 124.189 132.013 125.431 129.594 119.775C124.88 120.361 121.619 127.719 125.163 125.954Z" stroke="#2C6E6B"/>
<path d="M132.253 133.898C138.938 133.071 138.284 131.806 137.57 128.602C131.595 128.533 125.569 134.724 132.253 133.898Z" stroke="#2C6E6B"/>
</g>
<g id="Y-leaf2">
<path d="M107.62 160.027C110.777 168.556 111.672 153.137 110.281 147C106.223 147.329 104.463 151.497 107.62 160.027Z" fill="#2C6E6B"/>
<path d="M116.098 165.765C119.646 164.834 120.263 162.243 117.872 157.391C115.904 156.424 112.551 166.695 116.098 165.765Z" fill="#2C6E6B"/>
<path d="M127.627 155.53C130.288 161.112 129.401 167.626 127.627 170.417C125.854 173.209 124.08 166.695 124.08 166.695C123.453 164.939 123.406 163.925 124.08 162.043C124.322 159.604 124.967 149.947 127.627 155.53Z" fill="#2C6E6B"/>
<path d="M132.061 176C135.609 176 136.667 174.451 135.609 170.417C132.521 169.84 128.514 176 132.061 176Z" fill="#2C6E6B"/>
<path d="M107.62 160.027C110.777 168.556 111.672 153.137 110.281 147C106.223 147.329 104.463 151.497 107.62 160.027Z" stroke="#2C6E6B"/>
<path d="M116.098 165.765C119.646 164.834 120.263 162.243 117.872 157.391C115.904 156.424 112.551 166.695 116.098 165.765Z" stroke="#2C6E6B"/>
<path d="M127.627 155.53C130.288 161.112 129.401 167.626 127.627 170.417C125.854 173.209 124.08 166.695 124.08 166.695C123.453 164.939 123.406 163.925 124.08 162.043C124.322 159.604 124.967 149.947 127.627 155.53Z" stroke="#2C6E6B"/>
<path d="M132.061 176C135.609 176 136.667 174.451 135.609 170.417C132.521 169.84 128.514 176 132.061 176Z" stroke="#2C6E6B"/>
</g>
<g id="Y-leaf1">
<path d="M127.73 189.752C129.516 188.918 130.759 200.955 121.782 204C115.511 201.033 118.774 192.841 127.73 189.752Z" fill="#2C6E6B"/>
<path d="M117.56 188.71C122.646 188.001 125.959 179.01 121 181.5C116.041 183.99 111.345 188.937 117.56 188.71Z" fill="#2C6E6B"/>
<path d="M112.322 173.356C114.15 179.635 108.47 180.925 105.03 185.432C101.59 189.938 108.407 170.323 112.322 173.356Z" fill="#2C6E6B"/>
<path d="M92.541 177.862C103.451 182.387 101.905 173.434 98.5611 168.849C95.2175 164.264 93.0194 169.461 92.541 177.862Z" fill="#2C6E6B"/>
<path d="M87.3808 164.342C93.4639 163.378 88.201 178.342 78.7806 176.059C64.49 178.296 81.2977 165.307 87.3808 164.342Z" fill="#2C6E6B"/>
<path d="M72.7604 161.5C68.5737 161.662 64.6229 165.517 59 158.935C62.5361 151.851 76.9471 161.338 72.7604 161.5Z" fill="#2C6E6B"/>
<path d="M72.7604 149.02C75.6681 148.054 76.0588 133.412 61.5801 136.402C60.0935 144.612 69.8527 149.986 72.7604 149.02Z" fill="#2C6E6B"/>
<path d="M87.3808 152.625C88.9186 149.516 85.4024 145.254 88.2408 142.711C97.2064 152.541 85.8431 155.735 87.3808 152.625Z" fill="#2C6E6B"/>
<path d="M97.7011 156.231C102.621 155.554 103.055 154.013 101.141 149.922C96.6614 153.838 95.4549 155.429 97.7011 156.231Z" fill="#2C6E6B"/>
<path d="M127.802 189.579L127.73 189.752M127.73 189.752C129.516 188.918 130.759 200.955 121.782 204C115.511 201.033 118.774 192.841 127.73 189.752ZM117.56 188.71C122.646 188.001 125.959 179.01 121 181.5C116.041 183.99 111.345 188.937 117.56 188.71ZM112.322 173.356C114.15 179.635 108.47 180.925 105.03 185.432C101.59 189.938 108.407 170.323 112.322 173.356ZM92.541 177.862C103.451 182.387 101.905 173.434 98.5611 168.849C95.2175 164.264 93.0194 169.461 92.541 177.862ZM87.3808 164.342C93.4639 163.378 88.201 178.342 78.7806 176.059C64.49 178.296 81.2977 165.307 87.3808 164.342ZM72.7604 161.5C68.5737 161.662 64.6229 165.517 59 158.935C62.5361 151.851 76.9471 161.338 72.7604 161.5ZM72.7604 149.02C75.6681 148.054 76.0588 133.412 61.5801 136.402C60.0935 144.612 69.8527 149.986 72.7604 149.02ZM87.3808 152.625C88.9186 149.516 85.4024 145.254 88.2408 142.711C97.2064 152.541 85.8431 155.735 87.3808 152.625ZM97.7011 156.231C102.621 155.554 103.055 154.013 101.141 149.922C96.6614 153.838 95.4549 155.429 97.7011 156.231Z" stroke="#2C6E6B"/>
</g>
</g>
</g>
</svg>
