<svg width="300" height="289" viewBox="0 0 300 289" fill="none" xmlns="http://www.w3.org/2000/svg">
<g id="SVG-logo">
<g id="Tree">
<path d="M78.5 285.5C74.5398 285.28 55.0373 263.165 26.5 264.5C-2.03729 265.834 24.5 259.5 38.5 262C52.5 264.5 65.3323 266.559 73.5 274.5C79.4823 281.386 86.2522 280.978 94 282.5C107.386 279.276 110.714 275.7 113 266L114.5 239L114.34 239.166C111.488 242.128 109.841 243.838 103.5 245C91.423 246.19 86.5885 241.958 83.5 225C83.0772 212.355 82.8472 203.427 82.5 170C71.3316 149.769 68.3433 138.037 13.5 123L24 120C34.8411 124.378 39.8683 126.487 43.5 128.5C60.6985 134.629 68.7115 140.577 81.5 153.5V132.5C72.2729 109.823 64.5078 96.1807 19.5 79.5C33.4042 79.0634 40.6066 81.3514 52.5 89.5C65.8951 98.6951 72.8175 104.289 81.5 117C82.374 102.75 81.5905 91.861 80 72C67.0889 62.1247 63.6196 58.184 66.5 55C70.2719 62.1635 73.4362 64.4476 80 67C79.8106 50.8639 81.2914 45.6498 84.5 40C88.1062 87.7784 88.6956 116.832 92 153.5C96.5154 134.614 93.9508 107.948 93 55C97.1347 34.4204 98.4314 23.5961 115 6.49998C117.207 5.70207 118.158 5.7282 118.5 7.99998C102.988 25.7166 100.45 35.5649 96.5 55L97.5 85C98.3841 85.4871 98.8621 85.6427 99.5 84.5C110.441 62.4025 115.98 49.6017 122 24C121.932 28.7868 122.158 31.0532 119.5 44C111.241 65.8924 103.781 77.5182 101.5 97C103.555 98.0347 104.098 97.6984 105 97C112.243 90.1873 113.394 85.9055 116.5 81C118.554 82.3264 118.326 86.5138 106 103.5C101.675 118.455 101.115 126.595 101 141C98.3797 152.467 96.5019 157.98 92.5 170L92 225C92.725 235.462 97.5287 240.627 103.5 241C110.638 239.174 112.567 236.776 114.5 231.5L116.5 146.5C120.4 112.7 128.444 88.8233 141.95 62.8175C142.699 61.3187 143.545 59.7232 144.5 58C143.629 59.6157 142.779 61.2206 141.95 62.8175C137.73 71.2584 136.563 76.6331 136 84.5C156.267 64.4472 163.755 54.5397 190 42.5C181.436 48.2101 176.04 51.2332 171 58C183.285 57.6945 188.415 57.3414 195.5 56.5C184.933 59.5198 178.549 60.5658 166.5 61.5C154.58 69.0184 148.807 75.5518 140 91C147.784 90.2985 153.85 86.0418 169.5 67.5C167.151 75.3647 171.169 75.4498 139 99C119.275 142.578 125.623 144.913 126.5 146.5C129.607 136.143 131.195 129.743 135.5 124C132.796 133.824 132.089 137.418 133.5 137.5H136.5C164.028 115.63 181.423 104.291 198.5 77.5C188.256 94.2265 183.493 103.91 168 119C187.402 115.907 197.856 113.841 208 103.5C202.507 110.042 203.388 113.191 173 123C169.042 122.882 166.65 123.074 162 124C143.971 135.539 131.662 138.895 124.5 166.5L123.5 254C126.946 268.268 131.95 272.685 143.5 277.5C150.283 278.171 153.443 278.08 158.5 277.5C168.076 274.82 176.5 271 181 266.5C185.5 262 171.5 257.5 175.5 252C179.5 246.5 195 253 194.5 255C194 257 180 251 180.5 255C181 259 185 258.5 186.5 262C188 265.5 185.174 268.433 182.5 271.5L214.5 265C224.338 264.489 234.5 272 231.5 273.5C228.5 275 226.784 266.595 214.5 269C217.894 271.859 220.539 272.62 219.5 280.5C213.293 288.04 204.5 280.5 206.5 279.5C208.5 278.5 214.658 283.25 214.5 276C213.311 274.013 211.853 272.919 208 271C175.803 278.919 159.032 284.509 141.5 284C132.915 282.098 129.019 279.302 122.5 273.5C118.781 279.301 116.036 281.793 110.5 285.5C100.425 291.625 82.4602 285.72 78.5 285.5Z" fill="black"/>
<path d="M26.5 264.5C55.0373 263.165 74.5398 285.28 78.5 285.5C82.4602 285.72 100.425 291.625 110.5 285.5C116.036 281.793 118.781 279.301 122.5 273.5C129.019 279.302 132.915 282.098 141.5 284C159.032 284.509 175.803 278.919 208 271C211.853 272.919 213.311 274.013 214.5 276C214.658 283.25 208.5 278.5 206.5 279.5C204.5 280.5 213.293 288.04 219.5 280.5C220.539 272.62 217.894 271.859 214.5 269C226.784 266.595 228.5 275 231.5 273.5C234.5 272 224.338 264.489 214.5 265L182.5 271.5C185.174 268.433 188 265.5 186.5 262C185 258.5 181 259 180.5 255C180 251 194 257 194.5 255C195 253 179.5 246.5 175.5 252C171.5 257.5 185.5 262 181 266.5C176.5 271 168.076 274.82 158.5 277.5C153.443 278.08 150.283 278.171 143.5 277.5C131.95 272.685 126.946 268.268 123.5 254L124.5 166.5C131.662 138.895 143.971 135.539 162 124C166.65 123.074 169.042 122.882 173 123C203.388 113.191 202.507 110.042 208 103.5C197.856 113.841 187.402 115.907 168 119C183.493 103.91 188.256 94.2265 198.5 77.5C181.423 104.291 164.028 115.63 136.5 137.5H133.5C132.089 137.418 132.796 133.824 135.5 124C131.195 129.743 129.607 136.142 126.5 146.5C125.623 144.913 119.275 142.578 139 99C171.169 75.4498 167.151 75.3647 169.5 67.5C153.85 86.0418 147.784 90.2985 140 91C148.807 75.5518 154.58 69.0184 166.5 61.5C178.549 60.5658 184.933 59.5198 195.5 56.5C188.415 57.3414 183.285 57.6945 171 58C176.04 51.2332 181.436 48.2101 190 42.5C163.755 54.5397 156.267 64.4472 136 84.5C136.663 75.2362 138.164 69.4283 144.5 58C129.448 85.9284 120.64 110.625 116.5 146.5L114.5 231.5C112.567 236.776 110.638 239.174 103.5 241C97.5287 240.627 92.725 235.462 92 225L92.5 170C96.5019 157.98 98.3797 152.467 101 141C101.115 126.595 101.675 118.455 106 103.5C118.326 86.5138 118.554 82.3264 116.5 81C113.394 85.9055 112.243 90.1873 105 97C104.098 97.6984 103.555 98.0347 101.5 97C103.781 77.5182 111.241 65.8924 119.5 44C122.158 31.0532 121.932 28.7868 122 24C115.98 49.6017 110.441 62.4025 99.5 84.5C98.8621 85.6427 98.3841 85.4871 97.5 85L96.5 55C100.45 35.5649 102.988 25.7166 118.5 7.99998C118.158 5.7282 117.208 5.70207 115 6.49998C98.4314 23.5961 97.1347 34.4204 93 55C93.9508 107.948 96.5154 134.614 92 153.5C88.6956 116.832 88.1062 87.7784 84.5 40C81.2914 45.6498 79.8106 50.8639 80 67C73.4362 64.4476 70.2719 62.1635 66.5 55C63.6196 58.184 67.0889 62.1247 80 72C81.5905 91.861 82.374 102.75 81.5 117C72.8175 104.289 65.8951 98.6951 52.5 89.5C40.6066 81.3514 33.4042 79.0634 19.5 79.5C64.5078 96.1807 72.2729 109.823 81.5 132.5V153.5C68.7115 140.577 60.6985 134.629 43.5 128.5C39.8683 126.487 34.8411 124.378 24 120L13.5 123C68.3433 138.037 71.3316 149.769 82.5 170C82.8472 203.427 83.0772 212.355 83.5 225C86.5885 241.958 91.423 246.19 103.5 245C109.958 243.817 111.548 242.064 114.5 239L113 266C110.714 275.7 107.386 279.276 94 282.5C86.2522 280.978 79.4823 281.386 73.5 274.5C65.3323 266.559 52.5 264.5 38.5 262C24.5 259.5 -2.03729 265.834 26.5 264.5Z" stroke="black"/>
</g>
<g id="Static-letters">
<path id="X" d="M57.5318 185.364L57.5262 183.049L76.6947 183.003L76.7003 185.318L69.324 188.577L54.6443 209.951L71.4112 234.954L78.1304 237.639L78.1358 239.915L56.6178 239.967L56.6124 237.69L63.319 235.127L50.519 215.942L37.2144 235.344L43.7091 237.721L43.7145 239.997L24.1358 240.044L24.1304 237.767L31.619 234.74L47.5999 211.627L32.0303 188.28L25.1616 185.441L25.1561 183.126L46.0773 183.076L46.0829 185.391L40.1228 188.261L51.7996 205.597L63.8036 188.127L57.5318 185.364Z" fill="#9D1A1A"/>
<path id="l" d="M150.5 239.329L142.881 240C141.627 240 141 239.553 141 238.658C141 237.853 141.878 237.048 143.634 236.243C145.452 235.438 146.487 234.588 146.738 233.694C147.051 232.799 147.208 231.994 147.208 231.278V163.651C147.208 158.016 145.766 154.75 142.881 153.856C142.38 153.677 142.129 153.096 142.129 152.112C142.129 151.128 142.348 150.591 142.787 150.501C144.417 149.965 148.054 148.176 153.698 145.134H153.792L153.886 145C154.262 145 154.45 145.313 154.45 145.939L154.262 148.355C154.137 150.054 154.012 152.246 153.886 154.929C153.823 157.524 153.792 160.61 153.792 164.188V231.278C153.792 233.067 154.168 234.23 154.921 234.767C155.736 235.304 156.802 235.885 158.119 236.511C159.373 237.227 160 237.943 160 238.658C160 239.553 159.373 240 158.119 240L150.5 239.329Z" fill="#9D1A1A"/>
<path id="e" d="M194.3 181C198.38 181 201.78 182.095 204.5 184.284C207.22 186.473 208.58 189.72 208.58 194.023C208.58 197.496 206.691 201.384 202.913 205.687C199.211 209.915 194.829 213.803 189.767 217.351C184.78 220.9 180.511 223.391 176.96 224.825C178.849 227.845 181.002 229.959 183.42 231.167C185.838 232.299 188.671 232.866 191.92 232.866C195.547 232.866 199.136 231.96 202.687 230.148C206.313 228.26 209.298 225.845 211.64 222.9L213 225.278C209.298 230.035 205.369 233.696 201.213 236.263C197.058 238.754 191.958 240 185.913 240C181.304 240 177.187 238.868 173.56 236.603C169.933 234.338 167.1 231.318 165.06 227.543C163.02 223.693 162 219.541 162 215.086C162 209.5 163.511 204.064 166.533 198.779C169.556 193.495 173.56 189.229 178.547 185.983C183.533 182.661 188.784 181 194.3 181ZM188.407 188.134C185.082 188.134 182.098 189.191 179.453 191.305C176.884 193.419 174.844 196.137 173.333 199.459C171.898 202.781 171.18 206.216 171.18 209.764C171.18 214.445 172.276 218.446 174.467 221.768C177.64 220.333 181.078 218.182 184.78 215.313C188.482 212.369 191.618 209.198 194.187 205.8C196.756 202.403 198.04 199.308 198.04 196.514C198.04 190.928 194.829 188.134 188.407 188.134Z" fill="#9D1A1A"/>
<path id="m" d="M225.502 191.785C227.895 188.507 230.574 185.917 233.541 184.013C236.507 182.004 239.617 181 242.871 181C246.411 181 249.522 181.952 252.201 183.855C254.976 185.652 256.986 188.296 258.23 191.785C260.813 188.19 263.732 185.494 266.986 183.696C270.335 181.899 273.78 181 277.321 181C282.488 181 286.603 182.85 289.665 186.551C292.823 190.146 294.402 195.38 294.402 202.253V224.298C294.402 230.114 295.072 234.132 296.411 236.352C297.751 238.573 298.947 239.789 300 240H279.617C280.766 239.789 281.962 238.573 283.206 236.352C284.545 234.132 285.215 230.061 285.215 224.14V206.059C285.215 202.464 284.785 199.609 283.923 197.495C283.062 195.38 281.914 193.635 280.478 192.261C278.278 190.252 275.646 189.247 272.584 189.247C269.234 189.247 266.268 190.516 263.684 193.054C261.196 195.486 259.952 198.922 259.952 203.363V224.14C259.952 230.061 260.574 234.132 261.818 236.352C263.158 238.573 264.402 239.789 265.55 240H245.167C246.316 239.789 247.512 238.573 248.756 236.352C250.096 234.132 250.766 230.061 250.766 224.14V206.059C250.766 202.464 250.335 199.609 249.474 197.495C248.612 195.38 247.464 193.635 246.029 192.261C243.828 190.252 241.196 189.247 238.134 189.247C234.689 189.247 231.722 190.516 229.234 193.054C226.746 195.486 225.502 198.922 225.502 203.363V224.14C225.502 230.167 226.172 234.29 227.512 236.511C228.852 238.625 230.096 239.789 231.244 240H210.861C212.01 239.789 213.206 238.573 214.45 236.352C215.694 234.132 216.316 230.061 216.316 224.14V200.191C216.316 195.75 215.646 192.737 214.306 191.151C213.062 189.459 211.627 188.613 210 188.613L225.502 181V191.785Z" fill="#9D1A1A"/>
<path id="dot" d="M202 157.5C202 164.404 196.404 170 189.5 170C182.596 170 177 164.404 177 157.5C177 150.596 182.596 145 189.5 145C196.404 145 202 150.596 202 157.5Z" fill="#9D1A1A"/>
</g>
<g id="Leaves">
<g id="Y-leaf6">
<path d="M158.888 141.682C160.72 137.19 160.31 135.617 155.5 135.5C154.888 142.104 156.15 142.331 158.888 141.682Z" fill="#2C6E6B"/>
<path d="M158.5 118.332C161.955 115.291 161.76 113.334 158.5 109.5C144.144 119.128 154.495 117.373 158.5 118.332Z" fill="#2C6E6B"/>
<path d="M176.632 100.988C181.515 99.1625 181.854 97.2151 178.326 92.1563C174.442 91.2089 174.681 93.9745 176.632 100.988Z" fill="#2C6E6B"/>
<path d="M183.408 88.6235C188.737 86.7221 189.273 85.3615 185.949 82.441C178.118 84.8795 179.183 86.2274 183.408 88.6235Z" fill="#2C6E6B"/>
<path d="M196.112 78.0251C195.41 77.1477 198.297 72.7173 192.724 72.7258C191.271 78.2494 196.815 78.9025 196.112 78.0251Z" fill="#2C6E6B"/>
<path d="M204.582 68.3098C207.315 60.7948 206.169 58.7395 198.653 59.4776C195.695 69.2693 197.065 71.1139 204.582 68.3098Z" fill="#2C6E6B"/>
<path d="M206.276 58.5943C209.047 59.2595 209.88 58.8045 208.817 55.0615C205.977 53.1076 205.272 53.6126 206.276 58.5943Z" fill="#2C6E6B"/>
<path d="M212.205 71.8425C218.751 69.3819 220.76 67.3817 219.827 62.1272C213.453 61.1987 211.067 62.3289 212.205 71.8425Z" fill="#2C6E6B"/>
<path d="M207.97 84.2075C208.817 83.3243 215.234 81.2907 213.052 78.025C206.62 74.559 207.123 85.0907 207.97 84.2075Z" fill="#2C6E6B"/>
<path d="M202.888 95.6893C208.325 93.1766 209.379 91.2328 204.582 85.974C192.932 95.7261 192.614 97.8272 202.888 95.6893Z" fill="#2C6E6B"/>
<path d="M191.877 108.054C190.516 106.132 190.296 104.785 192.724 100.989C201.409 100.782 202.231 101.998 191.877 108.054Z" fill="#2C6E6B"/>
<path d="M185.949 114.237C188.489 114.237 188.136 110.812 185.949 108.938C182.352 111.007 183.408 114.237 185.949 114.237Z" fill="#2C6E6B"/>
<path d="M212.205 101.872C227.144 101.666 229.455 88.2656 224.927 88.8652C215.052 87.9308 211.869 90.2918 212.205 101.872Z" fill="#2C6E6B"/>
<path d="M207.123 116.003C217.047 122.123 221.919 124.458 221.521 114.237C213.074 108.275 209.953 108.738 207.123 116.003Z" fill="#2C6E6B"/>
<path d="M203.735 118.653C207.109 121.488 207.287 123.039 203.735 125.719C200.9 123.377 200.048 121.956 203.735 118.653Z" fill="#2C6E6B"/>
<path d="M211.358 127.485C214.629 129.023 214.413 130.577 210.511 134.551C206.453 131.13 205.767 129.451 211.358 127.485Z" fill="#2C6E6B"/>
<path d="M196.112 129.251C199.048 125.529 199.601 123.645 195.406 121.378C191.686 120.512 190.663 121.076 196.112 129.251Z" fill="#2C6E6B"/>
<path d="M200.347 136.317C202.032 132.971 201.335 131.879 197.806 131.018C195.841 137.544 196.491 138.563 200.347 136.317Z" fill="#2C6E6B"/>
<path d="M184.255 131.901C188.802 132.198 189.637 130.739 187.642 124.835C183.01 123.702 181.858 124.768 184.255 131.901Z" fill="#2C6E6B"/>
<path d="M175.785 124.505C182.144 126.688 174.938 133.338 177.479 138.637C167.527 145.795 169.426 122.323 175.785 124.505Z" fill="#2C6E6B"/>
<path d="M224.909 88.6236C224.915 88.7046 224.927 88.8652 224.927 88.8652M224.927 88.8652C229.455 88.2656 227.144 101.666 212.205 101.872C211.869 90.2918 215.052 87.9308 224.927 88.8652ZM195.265 121.303C195.313 121.328 195.36 121.353 195.406 121.378M195.406 121.378C199.601 123.645 199.048 125.529 196.112 129.251C190.663 121.076 191.686 120.512 195.406 121.378ZM158.888 141.682C160.72 137.19 160.31 135.617 155.5 135.5C154.888 142.104 156.15 142.331 158.888 141.682ZM158.5 118.332C161.955 115.291 161.76 113.334 158.5 109.5C144.144 119.128 154.495 117.373 158.5 118.332ZM176.632 100.988C181.515 99.1625 181.854 97.2151 178.326 92.1563C174.442 91.2089 174.681 93.9745 176.632 100.988ZM183.408 88.6235C188.737 86.7221 189.273 85.3615 185.949 82.441C178.118 84.8795 179.183 86.2274 183.408 88.6235ZM196.112 78.0251C195.41 77.1477 198.297 72.7173 192.724 72.7258C191.271 78.2494 196.815 78.9025 196.112 78.0251ZM204.582 68.3098C207.315 60.7948 206.169 58.7395 198.653 59.4776C195.695 69.2693 197.065 71.1139 204.582 68.3098ZM206.276 58.5943C209.047 59.2595 209.88 58.8045 208.817 55.0615C205.977 53.1076 205.272 53.6126 206.276 58.5943ZM212.205 71.8425C218.751 69.3819 220.76 67.3817 219.827 62.1272C213.453 61.1987 211.067 62.3289 212.205 71.8425ZM207.97 84.2075C208.817 83.3243 215.234 81.2907 213.052 78.025C206.62 74.559 207.123 85.0907 207.97 84.2075ZM202.888 95.6893C208.325 93.1766 209.379 91.2328 204.582 85.974C192.932 95.7261 192.614 97.8272 202.888 95.6893ZM191.877 108.054C190.516 106.132 190.296 104.785 192.724 100.989C201.409 100.782 202.231 101.998 191.877 108.054ZM185.949 114.237C188.489 114.237 188.136 110.812 185.949 108.938C182.352 111.007 183.408 114.237 185.949 114.237ZM207.123 116.003C217.047 122.123 221.919 124.458 221.521 114.237C213.074 108.275 209.953 108.738 207.123 116.003ZM203.735 118.653C207.109 121.488 207.287 123.039 203.735 125.719C200.9 123.377 200.048 121.956 203.735 118.653ZM211.358 127.485C214.629 129.023 214.413 130.577 210.511 134.551C206.453 131.13 205.767 129.451 211.358 127.485ZM200.347 136.317C202.032 132.971 201.335 131.879 197.806 131.018C195.841 137.544 196.491 138.563 200.347 136.317ZM184.255 131.901C188.802 132.198 189.637 130.739 187.642 124.835C183.01 123.702 181.858 124.768 184.255 131.901ZM175.785 124.505C182.144 126.688 174.938 133.338 177.479 138.637C167.527 145.795 169.426 122.323 175.785 124.505Z" stroke="#2C6E6B"/>
</g>
<g id="Y-leaf5">
<path d="M128 74.4645C131.834 74.3018 132.791 73.6143 131.509 70.8931C129.5 69.1018 128.841 70.4273 128 74.4645Z" fill="#2C6E6B"/>
<path d="M136.774 61.0717C139.36 61.6566 140.593 61.6293 140.283 57.5002C135.432 58.7016 133.389 59.4127 136.774 61.0717Z" fill="#2C6E6B"/>
<path d="M142.915 53.036C144.485 47.7698 142.942 47.1457 139.406 46.786C137.176 48.9756 135.209 50.1533 142.915 53.036Z" fill="#2C6E6B"/>
<path d="M150.811 48.5714C155.198 49.4643 153.766 40.4471 149.934 36.0714C144.082 44.9298 146.425 47.6786 150.811 48.5714Z" fill="#2C6E6B"/>
<path d="M163.972 43.2143C164.328 37.115 162.593 34.892 156.953 32.5C157.874 39.3586 158.394 43.1977 163.972 43.2143Z" fill="#2C6E6B"/>
<path d="M170.113 39.6429C176.261 32.7979 177.445 25.3872 167.481 20C162.039 27.848 163.522 32.1241 170.113 39.6429Z" fill="#2C6E6B"/>
<path d="M145.547 59.2857C148.921 58.513 150.221 59.6511 150.811 62.8571C147.891 63.4772 146.446 63.3775 145.547 59.2857Z" fill="#2C6E6B"/>
<path d="M153.443 55.7143C158.028 56.6351 158.643 55.3379 157.83 51.25C152.359 51.5042 151.736 52.6155 153.443 55.7143Z" fill="#2C6E6B"/>
<path d="M161.34 51.25C164.382 50.8528 165.366 50.2723 163.972 47.6786C161.167 46.1649 160.461 46.7341 161.34 51.25Z" fill="#2C6E6B"/>
<path d="M166.604 48.5714C167.869 49.4959 171.16 47.0106 170.113 44.1071C168.756 45.0309 165.338 47.6469 166.604 48.5714Z" fill="#2C6E6B"/>
<path d="M176.255 42.3214C180.037 40.2383 181.581 38.8737 180.642 35.1786C174.907 37.6272 173.509 39.1542 176.255 42.3214Z" fill="#2C6E6B"/>
<path d="M187.66 34.2857C193.966 31.2897 195.901 29.3174 192.047 24.4643C181.983 30.4747 183.109 32.0816 187.66 34.2857Z" fill="#2C6E6B"/>
<path d="M198.189 35.1786C200.73 37.1308 214.963 38.7266 211.349 21.7857C202.594 18.6471 195.647 33.2264 198.189 35.1786Z" fill="#2C6E6B"/>
<path d="M194.679 47.6786C199.587 48.8792 201.538 48.5935 201.698 44.1071C196.142 40.4541 195.436 42.725 194.679 47.6786Z" fill="#2C6E6B"/>
<path d="M207.84 47.6786C216.435 47.6307 220.58 46.7964 221 36.9643C209.155 38.5701 206.402 40.9651 207.84 47.6786Z" fill="#2C6E6B"/>
<path d="M139.406 120C145.291 118.935 146.707 117.244 143.792 111.071C138.833 112.994 138.426 115.215 139.406 120Z" fill="#2C6E6B"/>
<path d="M152.377 105.714C157.171 100.345 156.504 98.1087 151.5 95C148.774 101.053 146.977 104.609 152.377 105.714Z" fill="#2C6E6B"/>
<path d="M163.972 98.5714C169.568 98.5902 170.824 96.9485 170.113 91.4286C163.327 89.7352 161.963 91.2785 163.972 98.5714Z" fill="#2C6E6B"/>
<path d="M167.481 81.6071C175.207 83.5413 179.555 82.8568 178.009 75.3571C170.907 72.3375 167.472 75.4734 167.481 81.6071Z" fill="#2C6E6B"/>
<path d="M186.783 67.3214C191.405 65.0779 192.151 63.3236 186.783 58.3929C181.318 64.4768 180.529 66.8071 186.783 67.3214Z" fill="#2C6E6B"/>
<path d="M128 74.4645C131.834 74.3018 132.791 73.6143 131.509 70.8931C129.5 69.1018 128.841 70.4273 128 74.4645Z" stroke="#2C6E6B"/>
<path d="M136.774 61.0717C139.36 61.6566 140.593 61.6293 140.283 57.5002C135.432 58.7016 133.389 59.4127 136.774 61.0717Z" stroke="#2C6E6B"/>
<path d="M142.915 53.036C144.485 47.7698 142.942 47.1457 139.406 46.786C137.176 48.9756 135.209 50.1533 142.915 53.036Z" stroke="#2C6E6B"/>
<path d="M150.811 48.5714C155.198 49.4643 153.766 40.4471 149.934 36.0714C144.082 44.9298 146.425 47.6786 150.811 48.5714Z" stroke="#2C6E6B"/>
<path d="M163.972 43.2143C164.328 37.115 162.593 34.892 156.953 32.5C157.874 39.3586 158.394 43.1977 163.972 43.2143Z" stroke="#2C6E6B"/>
<path d="M170.113 39.6429C176.261 32.7979 177.445 25.3872 167.481 20C162.039 27.848 163.522 32.1241 170.113 39.6429Z" stroke="#2C6E6B"/>
<path d="M145.547 59.2857C148.921 58.513 150.221 59.6511 150.811 62.8571C147.891 63.4772 146.446 63.3775 145.547 59.2857Z" stroke="#2C6E6B"/>
<path d="M153.443 55.7143C158.028 56.6351 158.643 55.3379 157.83 51.25C152.359 51.5042 151.736 52.6155 153.443 55.7143Z" stroke="#2C6E6B"/>
<path d="M161.34 51.25C164.382 50.8528 165.366 50.2723 163.972 47.6786C161.167 46.1649 160.461 46.7341 161.34 51.25Z" stroke="#2C6E6B"/>
<path d="M166.604 48.5714C167.869 49.4959 171.16 47.0106 170.113 44.1071C168.756 45.0309 165.338 47.6469 166.604 48.5714Z" stroke="#2C6E6B"/>
<path d="M176.255 42.3214C180.037 40.2383 181.581 38.8737 180.642 35.1786C174.907 37.6272 173.509 39.1542 176.255 42.3214Z" stroke="#2C6E6B"/>
<path d="M187.66 34.2857C193.966 31.2897 195.901 29.3174 192.047 24.4643C181.983 30.4747 183.109 32.0816 187.66 34.2857Z" stroke="#2C6E6B"/>
<path d="M198.189 35.1786C200.73 37.1308 214.963 38.7266 211.349 21.7857C202.594 18.6471 195.647 33.2264 198.189 35.1786Z" stroke="#2C6E6B"/>
<path d="M194.679 47.6786C199.587 48.8792 201.538 48.5935 201.698 44.1071C196.142 40.4541 195.436 42.725 194.679 47.6786Z" stroke="#2C6E6B"/>
<path d="M207.84 47.6786C216.435 47.6307 220.58 46.7964 221 36.9643C209.155 38.5701 206.402 40.9651 207.84 47.6786Z" stroke="#2C6E6B"/>
<path d="M139.406 120C145.291 118.935 146.707 117.244 143.792 111.071C138.833 112.994 138.426 115.215 139.406 120Z" stroke="#2C6E6B"/>
<path d="M152.377 105.714C157.171 100.345 156.504 98.1087 151.5 95C148.774 101.053 146.977 104.609 152.377 105.714Z" stroke="#2C6E6B"/>
<path d="M163.972 98.5714C169.568 98.5902 170.824 96.9485 170.113 91.4286C163.327 89.7352 161.963 91.2785 163.972 98.5714Z" stroke="#2C6E6B"/>
<path d="M167.481 81.6071C175.207 83.5413 179.555 82.8568 178.009 75.3571C170.907 72.3375 167.472 75.4734 167.481 81.6071Z" stroke="#2C6E6B"/>
<path d="M186.783 67.3214C191.405 65.0779 192.151 63.3236 186.783 58.3929C181.318 64.4768 180.529 66.8071 186.783 67.3214Z" stroke="#2C6E6B"/>
</g>
<g id="Y-leaf4">
<path d="M70.3281 85C75.6126 84.7205 77.4838 84.0683 75.5937 80.5319C69.5097 78.9334 68.7477 80.2362 70.3281 85Z" fill="#2C6E6B"/>
<path d="M70.3281 74.2766C75.4134 73.1974 75.3275 71.3156 71.2057 66.234C68.2015 71.5618 66.3254 74.7063 70.3281 74.2766Z" fill="#2C6E6B"/>
<path d="M64.1849 67.1276C67.0961 71.0115 67.3274 72.5686 63.3072 73.383C60.2587 70.9015 60.2449 69.5295 64.1849 67.1276Z" fill="#2C6E6B"/>
<path d="M54.5312 68.0213C55.4088 72.4893 52.428 71.7174 55.4088 73.383C60.1132 71.5294 53.6536 63.5532 54.5312 68.0213Z" fill="#2C6E6B"/>
<path d="M57.164 62.6596C61.4239 63.4544 62.8455 62.8011 61.5913 57.4628C59.9214 50.6337 58.9379 53.8842 57.164 62.6596Z" fill="#2C6E6B"/>
<path d="M58.0416 47.4681C59.8064 37.7638 55.6541 35.4935 44 34.0638C48.1425 47.8695 50.8916 52.8849 58.0416 47.4681Z" fill="#2C6E6B"/>
<path d="M72.9609 44.7872C82.9203 38.0632 82.6685 34.5825 75.5937 28.7021C68.9585 37.4198 66.8975 41.5868 72.9609 44.7872Z" fill="#2C6E6B"/>
<path d="M74.2941 54.5704C77.782 54.2766 78.3203 52.9068 77.8045 49.2087C74.3403 49.052 74.1437 50.8409 74.2941 54.5704Z" fill="#2C6E6B"/>
<path d="M87.8801 28.7021C94.8172 28.1953 97.1831 27.0814 94.9009 21.5532C88.3055 22.7376 85.724 23.8673 87.8801 28.7021Z" fill="#2C6E6B"/>
<path d="M99.289 18.8723C105.043 16.7769 99.6348 1.45194 84.3697 1C81.8783 10.9907 93.5353 20.9678 99.289 18.8723Z" fill="#2C6E6B"/>
<path d="M115.086 19.766C115.104 24.758 113.773 25.37 108.943 22.4468L108.937 22.4122C108.723 21.0012 108.602 20.1994 115.086 19.766Z" fill="#2C6E6B"/>
<path d="M108.065 37.6383C114.505 38.5488 117.274 38.4337 114.208 32.2766C107.779 27.4023 107.606 30.603 108.065 37.6383Z" fill="#2C6E6B"/>
<path d="M103.677 41.2128C107.233 41.9462 109.271 42.1888 110.698 51.0425C104.997 54.2794 103.662 51.6443 103.677 41.2128Z" fill="#2C6E6B"/>
<path d="M101.044 64.4468C100.167 68.9149 107.551 62.5685 104.555 59.0851C101.355 56.4077 101.922 59.9787 101.044 64.4468Z" fill="#2C6E6B"/>
<path d="M109.82 81.4255C113.681 83.8279 115.113 82.6895 116.841 77.8511C116.836 75.0548 115.616 75.3527 109.82 81.4255Z" fill="#2C6E6B"/>
<path d="M115.963 72.4893C120.572 70.6373 121.476 69.3217 118.596 66.234C115.053 66.3299 113.718 66.9924 115.963 72.4893Z" fill="#2C6E6B"/>
<path d="M121.229 59.0851C128.198 56.0044 129.893 56.9519 127.372 65.3404C121.907 65.3867 120.266 64.2576 121.229 59.0851Z" fill="#2C6E6B"/>
<path d="M124.739 49.2553C121.936 54.1561 133.504 50.6067 132.638 42.1064C130.089 37.8892 127.543 44.3545 124.739 49.2553Z" fill="#2C6E6B"/>
<path d="M129.127 34.9574C140.848 32.5801 146.191 27.4819 143.169 20.6596C130.09 26.3062 127.652 31.4377 129.127 34.9574Z" fill="#2C6E6B"/>
<path d="M61.552 57.2979C61.5654 57.3533 61.5785 57.4083 61.5913 57.4628M61.5913 57.4628C62.8455 62.8011 61.4239 63.4544 57.164 62.6596C58.9379 53.8842 59.9214 50.6337 61.5913 57.4628ZM70.3281 85C75.6126 84.7205 77.4838 84.0683 75.5937 80.5319C69.5097 78.9334 68.7477 80.2362 70.3281 85ZM70.3281 74.2766C75.4134 73.1974 75.3275 71.3156 71.2057 66.234C68.2015 71.5618 66.3254 74.7063 70.3281 74.2766ZM64.1849 67.1276C67.0961 71.0115 67.3274 72.5686 63.3072 73.383C60.2587 70.9015 60.2449 69.5295 64.1849 67.1276ZM54.5312 68.0213C55.4088 72.4893 52.428 71.7174 55.4088 73.383C60.1132 71.5294 53.6536 63.5532 54.5312 68.0213ZM58.0416 47.4681C59.8064 37.7638 55.6541 35.4935 44 34.0638C48.1425 47.8696 50.8916 52.8849 58.0416 47.4681ZM72.9609 44.7872C82.9203 38.0632 82.6685 34.5825 75.5937 28.7021C68.9585 37.4198 66.8975 41.5868 72.9609 44.7872ZM74.2941 54.5704C77.782 54.2766 78.3203 52.9068 77.8045 49.2087C74.3403 49.052 74.1437 50.8409 74.2941 54.5704ZM87.8801 28.7021C94.8172 28.1953 97.1831 27.0814 94.9009 21.5532C88.3055 22.7376 85.724 23.8673 87.8801 28.7021ZM99.289 18.8723C105.043 16.7769 99.6348 1.45194 84.3697 1C81.8783 10.9907 93.5353 20.9678 99.289 18.8723ZM108.943 22.4468C113.773 25.37 115.104 24.758 115.086 19.766C108.549 20.2029 108.726 21.0143 108.943 22.4468ZM108.065 37.6383C114.505 38.5488 117.274 38.4337 114.208 32.2766C107.779 27.4023 107.606 30.603 108.065 37.6383ZM103.677 41.2128C107.233 41.9462 109.271 42.1888 110.698 51.0425C104.997 54.2794 103.662 51.6443 103.677 41.2128ZM101.044 64.4468C100.167 68.9149 107.551 62.5685 104.555 59.0851C101.355 56.4077 101.922 59.9787 101.044 64.4468ZM109.82 81.4255C113.681 83.8279 115.113 82.6895 116.841 77.851C116.836 75.0548 115.616 75.3527 109.82 81.4255ZM115.963 72.4893C120.572 70.6373 121.476 69.3217 118.596 66.234C115.053 66.3299 113.718 66.9924 115.963 72.4893ZM121.229 59.0851C128.198 56.0044 129.893 56.9519 127.372 65.3404C121.907 65.3867 120.266 64.2576 121.229 59.0851ZM124.739 49.2553C121.936 54.1561 133.504 50.6067 132.638 42.1064C130.089 37.8892 127.543 44.3545 124.739 49.2553ZM129.127 34.9574C140.848 32.5801 146.191 27.4819 143.169 20.6596C130.09 26.3062 127.652 31.4377 129.127 34.9574Z" stroke="#2C6E6B"/>
</g>
<g id="Y-leaf3">
<path d="M60.9599 117C60.9599 117 58.3012 104.643 64.5047 109.056C70.7082 113.469 60.9599 117 60.9599 117Z" fill="#2C6E6B"/>
<path d="M53.8701 106.959C57.0681 109.352 58.584 109.099 60.0737 101.663C56.936 100.02 55.6464 101.536 53.8701 106.959Z" fill="#2C6E6B"/>
<path d="M52.9839 97.2498C53.4321 100.819 52.2783 101.629 48.5528 101.663C49.3868 97.3056 50.5224 96.8254 52.9839 97.2498Z" fill="#2C6E6B"/>
<path d="M45.008 93.7192C46.7804 102.546 38.3924 103.151 28.1698 104.311C31.7142 96.7593 43.2355 84.8927 45.008 93.7192Z" fill="#2C6E6B"/>
<path d="M25.5112 84.8927C27.123 89.7833 25.7111 91.1858 20.1938 91.9539C20.2092 86.234 21.5052 84.8773 25.5112 84.8927Z" fill="#2C6E6B"/>
<path d="M7.78681 85.7753C13.0764 85.6117 14.5653 84.3613 13.9903 79.5968C9.51645 76.6534 8.60681 79.1777 7.78681 85.7753Z" fill="#2C6E6B"/>
<path d="M14.8765 72.5356C21.8764 72.6367 9.94261 59.5387 7.78681 65.4744C5.631 71.4101 7.87675 72.4345 14.8765 72.5356Z" fill="#2C6E6B"/>
<path d="M33.4871 72.5356C30.8285 67.2397 42.9696 59.9325 27.2836 54C12.9078 58.8111 36.1458 77.8315 33.4871 72.5356Z" fill="#2C6E6B"/>
<path d="M45.8942 61.0612C53.3952 66.1399 53.0541 69.9218 46.7804 77.8315C38.6742 77.0426 39.8318 72.3674 45.8942 61.0612Z" fill="#2C6E6B"/>
<path d="M53.8701 83.1274C56.5498 81.3707 56.8505 79.8703 54.7564 76.0662C49.7618 81.7781 49.2723 83.5124 53.8701 83.1274Z" fill="#2C6E6B"/>
<path d="M60.0737 84.01C64.8204 84.5048 65.7024 83.4261 63.6185 78.7141C60.7377 77.7012 59.743 78.4108 60.0737 84.01Z" fill="#2C6E6B"/>
<path d="M67.1634 91.9539C70.7083 90.1886 74.0129 91.4313 71.5945 85.7753C66.8799 86.3612 63.6185 93.7192 67.1634 91.9539Z" fill="#2C6E6B"/>
<path d="M74.2532 99.8977C80.9377 99.0714 80.2837 97.8063 79.5705 94.6018C73.5955 94.5333 67.5686 100.724 74.2532 99.8977Z" fill="#2C6E6B"/>
<path d="M60.9599 117C60.9599 117 58.3012 104.643 64.5047 109.056C70.7082 113.469 60.9599 117 60.9599 117Z" stroke="#2C6E6B"/>
<path d="M53.8701 106.959C57.0681 109.352 58.584 109.099 60.0737 101.663C56.936 100.02 55.6464 101.536 53.8701 106.959Z" stroke="#2C6E6B"/>
<path d="M52.9839 97.2498C53.4321 100.819 52.2783 101.629 48.5528 101.663C49.3868 97.3056 50.5224 96.8254 52.9839 97.2498Z" stroke="#2C6E6B"/>
<path d="M45.008 93.7192C46.7804 102.546 38.3924 103.151 28.1698 104.311C31.7142 96.7593 43.2355 84.8927 45.008 93.7192Z" stroke="#2C6E6B"/>
<path d="M25.5112 84.8927C27.123 89.7833 25.7111 91.1858 20.1938 91.9539C20.2092 86.234 21.5052 84.8773 25.5112 84.8927Z" stroke="#2C6E6B"/>
<path d="M7.78681 85.7753C13.0764 85.6117 14.5653 84.3613 13.9903 79.5968C9.51645 76.6534 8.60681 79.1777 7.78681 85.7753Z" stroke="#2C6E6B"/>
<path d="M14.8765 72.5356C21.8764 72.6367 9.94261 59.5387 7.78681 65.4744C5.631 71.4101 7.87675 72.4345 14.8765 72.5356Z" stroke="#2C6E6B"/>
<path d="M33.4871 72.5356C30.8285 67.2397 42.9696 59.9325 27.2836 54C12.9078 58.8111 36.1458 77.8315 33.4871 72.5356Z" stroke="#2C6E6B"/>
<path d="M45.8942 61.0612C53.3952 66.1399 53.0541 69.9218 46.7804 77.8315C38.6742 77.0426 39.8318 72.3674 45.8942 61.0612Z" stroke="#2C6E6B"/>
<path d="M53.8701 83.1274C56.5498 81.3707 56.8505 79.8703 54.7564 76.0662C49.7618 81.7781 49.2723 83.5124 53.8701 83.1274Z" stroke="#2C6E6B"/>
<path d="M60.0737 84.01C64.8204 84.5048 65.7024 83.4261 63.6185 78.7141C60.7377 77.7012 59.743 78.4108 60.0737 84.01Z" stroke="#2C6E6B"/>
<path d="M67.1634 91.9539C70.7083 90.1886 74.0129 91.4313 71.5945 85.7753C66.8799 86.3612 63.6185 93.7192 67.1634 91.9539Z" stroke="#2C6E6B"/>
<path d="M74.2532 99.8977C80.9377 99.0714 80.2837 97.8063 79.5705 94.6018C73.5955 94.5333 67.5686 100.724 74.2532 99.8977Z" stroke="#2C6E6B"/>
</g>
<g id="Y-leaf2">
<path d="M49.6204 126.027C52.7775 134.556 53.672 119.137 52.2809 113C48.2234 113.329 46.4634 117.497 49.6204 126.027Z" fill="#2C6E6B"/>
<path d="M58.0984 131.765C61.6457 130.834 62.2634 128.243 59.8721 123.391C57.904 122.424 54.5511 132.695 58.0984 131.765Z" fill="#2C6E6B"/>
<path d="M69.6272 121.53C72.2877 127.112 71.4008 133.626 69.6272 136.417C67.8535 139.209 66.0799 132.695 66.0799 132.695C65.4528 130.939 65.4061 129.925 66.0799 128.043C66.3225 125.604 66.9667 115.947 69.6272 121.53Z" fill="#2C6E6B"/>
<path d="M74.0613 142C77.6086 142 78.6673 140.451 77.6086 136.417C74.5206 135.84 70.514 142 74.0613 142Z" fill="#2C6E6B"/>
<path d="M49.6204 126.027C52.7775 134.556 53.672 119.137 52.2809 113C48.2234 113.329 46.4634 117.497 49.6204 126.027Z" stroke="#2C6E6B"/>
<path d="M58.0984 131.765C61.6457 130.834 62.2634 128.243 59.8721 123.391C57.904 122.424 54.5511 132.695 58.0984 131.765Z" stroke="#2C6E6B"/>
<path d="M69.6272 121.53C72.2877 127.112 71.4008 133.626 69.6272 136.417C67.8535 139.209 66.0799 132.695 66.0799 132.695C65.4528 130.939 65.4061 129.925 66.0799 128.043C66.3225 125.604 66.9667 115.947 69.6272 121.53Z" stroke="#2C6E6B"/>
<path d="M74.0613 142C77.6086 142 78.6673 140.451 77.6086 136.417C74.5206 135.84 70.514 142 74.0613 142Z" stroke="#2C6E6B"/>
</g>
<g id="Y-leaf1">
<path d="M69.7299 155.752C71.516 154.918 72.7595 166.955 63.7818 170C57.5112 167.033 60.7741 158.841 69.7299 155.752Z" fill="#2C6E6B"/>
<path d="M59.5599 154.71C64.6462 154.001 67.9588 145.01 63 147.5C58.0412 149.99 53.3452 154.937 59.5599 154.71Z" fill="#2C6E6B"/>
<path d="M54.3215 139.356C56.1503 145.635 50.4703 146.925 47.0302 151.432C43.5901 155.938 50.4068 136.323 54.3215 139.356Z" fill="#2C6E6B"/>
<path d="M34.541 143.862C45.4507 148.387 43.9048 139.434 40.5611 134.849C37.2175 130.264 35.0194 135.461 34.541 143.862Z" fill="#2C6E6B"/>
<path d="M29.3808 130.342C35.4639 129.378 30.201 144.342 20.7806 142.059C6.49003 144.296 23.2977 131.307 29.3808 130.342Z" fill="#2C6E6B"/>
<path d="M14.7604 127.5C10.5737 127.662 6.62293 131.517 1 124.935C4.53612 117.851 18.9471 127.338 14.7604 127.5Z" fill="#2C6E6B"/>
<path d="M14.7604 115.02C17.6681 114.054 18.0588 99.412 3.58007 102.402C2.09348 110.612 11.8527 115.986 14.7604 115.02Z" fill="#2C6E6B"/>
<path d="M29.3808 118.625C30.9186 115.516 27.4024 111.254 30.2408 108.711C39.2064 118.541 27.8431 121.735 29.3808 118.625Z" fill="#2C6E6B"/>
<path d="M39.7011 122.231C44.621 121.554 45.0548 120.013 43.1412 115.922C38.6614 119.838 37.4549 121.429 39.7011 122.231Z" fill="#2C6E6B"/>
<path d="M69.8019 155.579L69.7299 155.752M69.7299 155.752C71.516 154.918 72.7595 166.955 63.7818 170C57.5112 167.033 60.7741 158.841 69.7299 155.752ZM59.5599 154.71C64.6462 154.001 67.9588 145.01 63 147.5C58.0412 149.99 53.3452 154.937 59.5599 154.71ZM54.3215 139.356C56.1503 145.635 50.4703 146.925 47.0302 151.432C43.5901 155.938 50.4068 136.323 54.3215 139.356ZM34.541 143.862C45.4507 148.387 43.9048 139.434 40.5611 134.849C37.2175 130.264 35.0194 135.461 34.541 143.862ZM29.3808 130.342C35.4639 129.378 30.201 144.342 20.7806 142.059C6.49003 144.296 23.2977 131.307 29.3808 130.342ZM14.7604 127.5C10.5737 127.662 6.62293 131.517 1 124.935C4.53612 117.851 18.9471 127.338 14.7604 127.5ZM14.7604 115.02C17.6681 114.054 18.0588 99.412 3.58007 102.402C2.09348 110.612 11.8527 115.986 14.7604 115.02ZM29.3808 118.625C30.9186 115.516 27.4024 111.254 30.2408 108.711C39.2064 118.541 27.8431 121.735 29.3808 118.625ZM39.7011 122.231C44.621 121.554 45.0548 120.013 43.1412 115.922C38.6614 119.838 37.4549 121.429 39.7011 122.231Z" stroke="#2C6E6B"/>
</g>
</g>
</g>
</svg>
