<svg
        width="179"
        height="169"
        viewBox="0 0 179 169"
        fill="none"
        xmlns="http://www.w3.org/2000/svg"
      >
        <g id="Xylem Logo SVG Main" clipPath="url(#clip0_2_7)">
          {/* <!-- Static Letters --> */}
          <g id="static-letters">
            <path
              id="X"
              d="M33.5781 105.836V104.43H45.625V105.836L40.9844 107.805L31.7266 120.766L42.2266 135.977L46.4453 137.617V139H32.9219V137.617L37.1406 136.07L29.125 124.398L20.7344 136.164L24.8125 137.617V139H12.5078V137.617L17.2188 135.789L27.2969 121.773L17.5469 107.57L13.2344 105.836V104.43H26.3828V105.836L22.6328 107.57L29.9453 118.117L37.5156 107.523L33.5781 105.836Z"
              fill="#9D1A1A"
            />
            <path
              id="l"
              d="M86.4503 138.836L79.8083 139.246C78.715 139.246 78.1684 138.973 78.1684 138.426C78.1684 137.934 78.9337 137.442 80.4643 136.95C82.0497 136.458 82.9517 135.939 83.1704 135.392C83.4437 134.845 83.5803 134.353 83.5803 133.916V92.588C83.5803 89.144 82.323 87.1487 79.8083 86.602C79.371 86.4927 79.1523 86.1373 79.1523 85.536C79.1523 84.9347 79.3437 84.6067 79.7263 84.552C81.1477 84.224 84.3183 83.1307 89.2383 81.272H89.3204L89.4023 81.19C89.7303 81.19 89.8944 81.3813 89.8944 81.764L89.7304 83.24C89.621 84.2787 89.5117 85.618 89.4023 87.258C89.3477 88.8433 89.3204 90.7293 89.3204 92.916V133.916C89.3204 135.009 89.6483 135.72 90.3043 136.048C91.015 136.376 91.9444 136.731 93.0924 137.114C94.1857 137.551 94.7324 137.989 94.7324 138.426C94.7324 138.973 94.1857 139.246 93.0924 139.246L86.4503 138.836Z"
              fill="#9D1A1A"
            />
            <path
              id="e"
              d="M111.901 106.424C114.205 106.424 116.125 107.043 117.661 108.28C119.197 109.517 119.965 111.352 119.965 113.784C119.965 115.747 118.899 117.944 116.765 120.376C114.675 122.765 112.2 124.963 109.341 126.968C106.525 128.973 104.115 130.381 102.109 131.192C103.176 132.899 104.392 134.093 105.757 134.776C107.123 135.416 108.723 135.736 110.557 135.736C112.605 135.736 114.632 135.224 116.637 134.2C118.685 133.133 120.371 131.768 121.693 130.104L122.461 131.448C120.371 134.136 118.152 136.205 115.805 137.656C113.459 139.064 110.579 139.768 107.165 139.768C104.563 139.768 102.237 139.128 100.189 137.848C98.1413 136.568 96.5413 134.861 95.3893 132.728C94.2373 130.552 93.6613 128.205 93.6613 125.688C93.6613 122.531 94.5146 119.459 96.2213 116.472C97.9279 113.485 100.189 111.075 103.005 109.24C105.821 107.363 108.787 106.424 111.901 106.424ZM108.573 110.456C106.696 110.456 105.011 111.053 103.517 112.248C102.067 113.443 100.915 114.979 100.061 116.856C99.2506 118.733 98.8453 120.675 98.8453 122.68C98.8453 125.325 99.4639 127.587 100.701 129.464C102.493 128.653 104.435 127.437 106.525 125.816C108.616 124.152 110.387 122.36 111.837 120.44C113.288 118.52 114.013 116.771 114.013 115.192C114.013 112.035 112.2 110.456 108.573 110.456Z"
              fill="#9D1A1A"
            />
            <path
              id="m"
              d="M131.9 111.552C133.35 109.754 134.974 108.333 136.772 107.289C138.57 106.187 140.455 105.636 142.427 105.636C144.573 105.636 146.458 106.158 148.082 107.202C149.764 108.188 150.982 109.638 151.736 111.552C153.302 109.58 155.071 108.101 157.043 107.115C159.073 106.129 161.161 105.636 163.307 105.636C166.439 105.636 168.933 106.651 170.789 108.681C172.703 110.653 173.66 113.524 173.66 117.294V129.387C173.66 132.577 174.066 134.781 174.878 135.999C175.69 137.217 176.415 137.884 177.053 138H164.699C165.395 137.884 166.12 137.217 166.874 135.999C167.686 134.781 168.092 132.548 168.092 129.3V119.382C168.092 117.41 167.831 115.844 167.309 114.684C166.787 113.524 166.091 112.567 165.221 111.813C163.887 110.711 162.292 110.16 160.436 110.16C158.406 110.16 156.608 110.856 155.042 112.248C153.534 113.582 152.78 115.467 152.78 117.903V129.3C152.78 132.548 153.157 134.781 153.911 135.999C154.723 137.217 155.477 137.884 156.173 138H143.819C144.515 137.884 145.24 137.217 145.994 135.999C146.806 134.781 147.212 132.548 147.212 129.3V119.382C147.212 117.41 146.951 115.844 146.429 114.684C145.907 113.524 145.211 112.567 144.341 111.813C143.007 110.711 141.412 110.16 139.556 110.16C137.468 110.16 135.67 110.856 134.162 112.248C132.654 113.582 131.9 115.467 131.9 117.903V129.3C131.9 132.606 132.306 134.868 133.118 136.086C133.93 137.246 134.684 137.884 135.38 138H123.026C123.722 137.884 124.447 137.217 125.201 135.999C125.955 134.781 126.332 132.548 126.332 129.3V116.163C126.332 113.727 125.926 112.074 125.114 111.204C124.36 110.276 123.49 109.812 122.504 109.812L131.9 105.636V111.552Z"
              fill="#9D1A1A"
            />
            <path
              id="dot"
              d="M116 94.5C116 98.6421 112.642 102 108.5 102C104.358 102 101 98.6421 101 94.5C101 90.3579 104.358 87 108.5 87C112.642 87 116 90.3579 116 94.5Z"
              fill="#9D1A1A"
            />
          </g>

          {/* <!-- Tree --> */}
          <g id="tree">
            {/* <!-- Tree Roots --> */}
            <g id="tree-roots">
              <path
                id="y-root1"
                d="M25 148.5C19.9144 150.221 14.5 153 13.5 153.5C12.5 154 21.9901 152.268 25.5 151.5C30.4168 151.833 32.4151 152.601 34.7108 154.705L37 151.5C33.2382 149.192 30.8838 148.654 25 148.5Z"
                fill="black"
                stroke="black"
              />
              <path
                id="y-root2"
                d="M121.5 154C122.291 155.463 122.626 156.271 121.5 157.5H124C126.333 159.009 127.491 160.161 127 163C125.31 163.219 124.5 163.5 121.5 162C118.5 160.5 122.936 166 126 165.5C129.064 165 129.549 162.654 129.5 163C129.605 163.25 129.577 162.214 129.5 160L126.5 156.5C128.211 155.456 129.398 155.11 132 155C135.011 156.251 140 161.5 139 158.5C138 155.5 137.862 155.377 134.5 153.5L121.5 154Z"
                fill="black"
                stroke="black"
              />
              <g id="y-root3">
                <path
                  d="M111.5 157.5H107.5V160.5H108H109H110H111L111.5 160H112H112.5L113 159.5H113.5H114H114.5L115 159H116L116.5 158H117L117.5 158.5H118.5L119 158H119.5H120.5L121 157.5H121.5V154H120.5H120L119.5 154.5H118.5L118 155H117.5L117 155.5H116.5L116 156H115.5L115 156.5H113.5L113 157H112L111.5 157.5Z"
                  fill="black"
                />
                <path
                  d="M120.699 153.66C121.088 153.692 121.453 153.829 121.711 154.133C121.964 154.432 122.054 154.818 122.051 155.215C122.045 155.937 121.885 156.576 121.527 157.086C121.163 157.605 120.639 157.927 119.996 158.059C119.49 158.162 118.971 158.306 118.445 158.496C117.892 158.696 117.372 158.875 116.883 159.027C116.422 159.171 115.937 159.349 115.434 159.57C114.904 159.803 114.36 160.018 113.805 160.215C113.24 160.415 112.637 160.587 111.996 160.73C111.357 160.873 110.703 160.987 110.035 161.074C109.309 161.169 108.638 161.096 108.043 160.824C107.702 160.668 107.431 160.42 107.273 160.078C107.121 159.747 107.096 159.371 107.148 158.984C107.192 158.67 107.212 158.424 107.211 158.246C107.21 158.05 107.186 157.993 107.191 158.004C107.106 157.828 107.089 157.609 107.203 157.406C107.298 157.24 107.448 157.143 107.555 157.09C107.772 156.981 108.076 156.914 108.41 156.867C109.123 156.768 109.837 156.8 110.547 156.957C111.116 157.083 111.673 157.059 112.223 156.891C112.848 156.698 113.425 156.506 113.949 156.312C114.459 156.124 114.974 155.884 115.496 155.598C116.061 155.287 116.649 155.028 117.254 154.812C117.804 154.617 118.307 154.379 118.766 154.102C119.35 153.747 120 153.603 120.699 153.66ZM120.617 154.656C120.117 154.615 119.679 154.718 119.285 154.957C118.765 155.272 118.199 155.537 117.59 155.754C117.036 155.951 116.498 156.192 115.98 156.477C115.419 156.785 114.857 157.043 114.297 157.25C113.752 157.451 113.157 157.651 112.516 157.848C111.799 158.067 111.068 158.096 110.332 157.934C109.737 157.802 109.144 157.777 108.551 157.859C108.396 157.881 108.275 157.901 108.188 157.922C108.202 158.029 108.211 158.138 108.211 158.242C108.212 158.485 108.187 158.779 108.141 159.117C108.104 159.382 108.134 159.553 108.184 159.66C108.228 159.758 108.306 159.845 108.457 159.914C108.849 160.093 109.326 160.161 109.906 160.086C110.545 160.003 111.169 159.89 111.777 159.754C112.383 159.618 112.949 159.459 113.473 159.273C114.006 159.085 114.528 158.879 115.035 158.656C115.568 158.422 116.086 158.226 116.586 158.07C117.059 157.923 117.565 157.75 118.105 157.555C118.673 157.349 119.236 157.192 119.793 157.078C120.212 156.992 120.505 156.8 120.707 156.512C120.916 156.213 121.046 155.791 121.051 155.207C121.053 154.951 120.993 154.834 120.949 154.781C120.911 154.736 120.827 154.673 120.617 154.656Z"
                  fill="black"
                />
              </g>
              <path
                id="y-root4"
                d="M37.5 152L35 155L37 157L41.5 161L45.5 165L48.5 162L47 161L44.5 158.5L42 156L39.5 153.5L37.5 152Z"
                fill="black"
                stroke="black"
              />
              <path
                id="y-root5"
                d="M51 163.5L48.5 162L46 165.5L47.5 167L49.5 167.5L53.5 168.5C54.5933 168.688 55.2591 168.667 56.5 168.5L58 168L61.5 167.5L66 165.5L67.5 163.5L64.5 158.5L63 160.5L61 162L59.5 162.5L58 163.5H56.5L54.5 164L53 163.5H51Z"
                fill="black"
                stroke="black"
              />
              <path
                id="y-root6"
                d="M107.5 157L105 156C106.299 154.949 106.652 154.4 106.5 153.5C103.778 151.781 101.767 149.283 102.5 148.5C102.955 146.687 103.446 145.873 105 145C108.091 144.068 109.885 143.739 113.5 144.5C115.344 145.742 117.5 148.5 116 148C114.5 147.5 113.385 146.986 110.5 146C108.413 146.443 107.467 146.752 106.5 147.5V149C108.636 149.835 109.281 150.405 110 151.5V154L107.5 157Z"
                fill="black"
                stroke="black"
              />
              <path
                id="y-root7"
                d="M107 157.5L107.5 160.5C102.777 162.27 99.7416 162.877 92 164.5H85V161H94C98.4616 159.818 101.214 159.309 104.5 156.5L107 157.5Z"
                fill="black"
                stroke="black"
              />
            </g>

            {/* <!-- Tree Trunk --> */}
            <g id="tree-trunk">
              <path
                id="y-trunk1"
                d="M84 164.5V160.5C75.1587 158.038 74.8267 153.799 73 147C72.8424 143.39 72.3327 141.109 72.5 138.5L67 139V147C67.0837 152.274 66.5722 154.599 65 158L68 163L71.5 158.5C71.7639 157.948 71.9861 157.962 72.5 158.5C74.7556 161.631 78.4319 163.382 84 164.5Z"
                fill="black"
                stroke="black"
              />
              <path
                id="y-trunk2"
                d="M73.5 96L72.5 138H67.5C66.6589 140.283 63.6504 140.829 58.5 142C55.6399 141.664 54.401 141.024 52.5 139.5C50.1864 136.893 49.6 135.189 49 132L48 96H54V132C54.3754 135.347 57.5449 139.713 61.5 139C65.4551 138.287 67.3688 133.732 67 133.5L68 96H73.5Z"
                fill="black"
                stroke="black"
              />
            </g>

            {/* <!-- Tree Branches --> */}
            <g id="tree-branches">
              <g id="y-branch1">
                <path
                  d="M68 95V83C70.1624 66.3152 73.4029 59.9128 78.5 47.5C78.7664 40.9455 80.7694 37.7733 83.4856 32.865C83.8023 32.2132 84.1407 31.5872 84.5 31C84.1526 31.6531 83.8139 32.2717 83.4856 32.865C80.6019 38.7996 79.5159 46.8742 80.8328 47.2658C82.2944 47.7005 91.3688 34.3042 98.3328 30.2658C111.062 20.2724 111.253 20.5055 111.5 21C104.581 27.4852 101.757 29.8351 100.834 30.4484C106.548 29.5692 109.563 29.3925 114.5 29.5C117.682 30.213 111.817 31.2874 98 33.5C89.9606 39.2046 86.553 42.8126 82.5 50C86.1468 51.9649 98.7355 37.0814 100.5 36C102.264 34.9186 94.9535 46.2207 85.5 52.5C80.4167 56.2303 78.0346 59.1666 75.5 67.5C73.935 73.6223 73.5241 77.0132 73.5 83C74.7993 83.1664 75.4501 82.3321 76.5 79.5C76.7452 74.5645 79.8502 64.4509 79 69.5C78.1498 74.5491 77.7604 77.4524 79 78L99 64.5L117.5 41.5L99.5 67.5C111.663 65.835 122.19 58.8092 123.5 58C124.81 57.1908 111.5 68 106 69C100.5 70 95.5 70 95.5 70C82.1951 76.5661 76.7849 81.6376 73.5 95H68Z"
                  fill="black"
                />
                <path
                  d="M68 95V83C70.1624 66.3152 73.4029 59.9128 78.5 47.5C78.7986 40.1532 81.279 37.0559 84.5 31C80.8695 36.9332 79.3712 46.8312 80.8328 47.2658C82.2944 47.7005 91.3688 34.3042 98.3328 30.2658C111.062 20.2724 111.253 20.5055 111.5 21C101.789 30.102 100.145 31.0582 100.5 30.5C106.432 29.5761 109.468 29.3904 114.5 29.5C117.682 30.213 111.817 31.2874 98 33.5C89.9606 39.2046 86.553 42.8126 82.5 50C86.1468 51.9649 98.7355 37.0814 100.5 36C102.264 34.9186 94.9535 46.2207 85.5 52.5C80.4167 56.2303 78.0346 59.1666 75.5 67.5C73.935 73.6223 73.5241 77.0132 73.5 83C74.7993 83.1664 75.4501 82.332 76.5 79.5C76.7452 74.5645 79.8502 64.4509 79 69.5C78.1498 74.5491 77.7604 77.4524 79 78L99 64.5L117.5 41.5L99.5 67.5C111.663 65.835 122.19 58.8092 123.5 58C124.81 57.1908 111.5 68 106 69C100.5 70 95.5 70 95.5 70C82.1951 76.5661 76.7849 81.6376 73.5 95H68Z"
                  stroke="black"
                />
              </g>
              <path
                id="y-branch2"
                d="M54 95.5H48L44 89C35.5365 76.3055 17.2635 69.6323 10.5 70C3.73654 70.3677 10.4619 67.8722 17.5 69.5C20.9283 71.6255 19.6533 70.2461 29 74C37.3921 78.9653 42.0031 81.4118 47.5 87.5V75C45.7009 67.5997 44.0898 65.3441 41 62C31.0804 50.9189 9.5 43 10 43C10.5 43 19.2597 44.886 28 48.5C37.9414 53.4145 46.9272 64.8654 48 65C49.0728 65.1346 47 39 47 39C41.9458 34.684 36.9336 29.0724 37 28.5C37.0664 27.9276 44.2427 31.9762 47 36C47.6601 23.4831 49.3837 16.9449 50.5 19.5C51.6163 22.0551 52.1625 84.4952 53.5 87.5C54.8375 90.5048 57.1241 64.5724 54.5 47.5C54.5 47.5 53.5 31 55.5 22C57.5 13 61.0387 7.2968 66 0.5C68.6046 -0.0114702 70.042 -0.280032 68.5 2.5C65.0669 5.44485 62.7634 8.32145 57 24.5C55.7801 23.8965 57.7567 47.212 58.5 46C59.2433 44.788 70.5 19.5 70.5 19.5C70.5 19.5 71 10.5 71.5 12C72 13.5 71.4627 11.7197 72 17C72.5373 22.2803 70.792 24.2669 59.5 47.5C60.1399 47.4098 57.983 54.1903 61 54C64.0171 53.8097 68.3158 43.8955 68.5 44.5C68.6842 45.1045 67.6156 50.9003 63 56.5C60.0224 60.8974 59.6403 66.0906 59.5 76.5C58.9249 85.0119 57.0554 88.7101 54 95.5Z"
                fill="black"
                stroke="black"
              />
            </g>

            {/* <!-- Tree Leaves --> */}
            <g id="tree-leaves">
              <g id="y-leaf1">
                <path
                  d="M39.9581 88.0957C40.9965 87.6334 41.7194 94.311 36.5 96C34.5891 91.043 35.2192 88.9168 39.9581 88.0957Z"
                  fill="#2C6E6B"
                />
                <path
                  d="M34 87.5C36.9571 87.1066 36 83 36 83.5C36 84 33.5746 86.6513 34 87.5Z"
                  fill="#2C6E6B"
                />
                <path
                  d="M31 79C32.0632 82.4834 28.761 83.1992 26.761 85.6992C24.761 88.1992 28.7241 77.318 31 79Z"
                  fill="#2C6E6B"
                />
                <path
                  d="M19.5 81.5C22.4425 81.167 22.5 77 23 76.5C23.5 76 19.7781 76.8393 19.5 81.5Z"
                  fill="#2C6E6B"
                />
                <path
                  d="M16.5 74C16.2292 76.0132 16.9768 81.7661 11.5 80.5C11.4633 76.2042 16.7708 71.9868 16.5 74Z"
                  fill="#2C6E6B"
                />
                <path
                  d="M5 71C2.56596 71.0897 3.26905 74.6518 0 71C2.05582 67.0705 7.43404 70.9103 5 71Z"
                  fill="#2C6E6B"
                />
                <path
                  d="M8 65.5C9.69047 64.964 9.91761 56.8414 1.5 58.5C0.635725 63.0545 6.30953 66.036 8 65.5Z"
                  stroke="#2C6E6B"
                />
                <path
                  d="M16.5 67.5C17.394 65.7749 15.3498 63.411 17 62C22.2124 67.4533 15.606 69.2251 16.5 67.5Z"
                  stroke="#2C6E6B"
                />
                <path
                  d="M22.5 69.5C25.3603 69.1246 25.6125 68.2696 24.5 66C21.8955 68.1724 21.1941 69.0554 22.5 69.5Z"
                  stroke="#2C6E6B"
                />
              </g>
              <g id="y-leaf2">
                <path
                  d="M28.72 71.4166C30.5 76 31.0044 67.7146 30.22 64.4166C27.9324 64.5931 26.9401 66.8331 28.72 71.4166Z"
                  fill="#2C6E6B"
                />
                <path
                  d="M33.5 74.5C35.5 74 35.8482 72.6075 34.5 70C33.3904 69.4807 31.5 75 33.5 74.5Z"
                  fill="#2C6E6B"
                />
                <path
                  d="M40 69C41.5 72 41 75.5 40 77C39 78.5 38 75 38 75C37.6464 74.0561 37.6201 73.5113 38 72.5C38.1368 71.1895 38.5 66 40 69Z"
                  fill="#2C6E6B"
                />
                <path
                  d="M42.5 80C44.5 80 45.0969 79.1674 44.5 77C42.7589 76.69 40.5 80 42.5 80Z"
                  fill="#2C6E6B"
                />
                <path
                  d="M28.72 71.4166C30.5 76 31.0044 67.7146 30.22 64.4166C27.9324 64.5931 26.9401 66.8331 28.72 71.4166Z"
                  stroke="#2C6E6B"
                />
                <path
                  d="M33.5 74.5C35.5 74 35.8482 72.6075 34.5 70C33.3904 69.4807 31.5 75 33.5 74.5Z"
                  stroke="#2C6E6B"
                />
                <path
                  d="M40 69C41.5 72 41 75.5 40 77C39 78.5 38 75 38 75C37.6464 74.0561 37.6201 73.5113 38 72.5C38.1368 71.1895 38.5 66 40 69Z"
                  stroke="#2C6E6B"
                />
                <path
                  d="M42.5 80C44.5 80 45.0969 79.1674 44.5 77C42.7589 76.69 40.5 80 42.5 80Z"
                  stroke="#2C6E6B"
                />
              </g>
              <g id="y-leaf3">
                <path
                  d="M34.5 66.1881C34.5 66.1881 33 59.1881 36.5 61.6881C40 64.1881 34.5 66.1881 34.5 66.1881Z"
                  fill="#2C6E6B"
                />
                <path
                  d="M30.5 60.5C32.3043 61.8556 33.1595 61.7126 34 57.5C32.2298 56.5694 31.5022 57.428 30.5 60.5Z"
                  fill="#2C6E6B"
                />
                <path
                  d="M30 55C30.2529 57.0216 29.6019 57.4809 27.5 57.5C27.9705 55.0316 28.6112 54.7596 30 55Z"
                  fill="#2C6E6B"
                />
                <path
                  d="M25.5 53C26.5 58 21.7675 58.3428 16 59C17.9997 54.7222 24.5 48 25.5 53Z"
                  fill="#2C6E6B"
                />
                <path
                  d="M14.5 48C15.4094 50.7704 14.6128 51.5649 11.5 52C11.5086 48.7598 12.2398 47.9913 14.5 48Z"
                  fill="#2C6E6B"
                />
                <path
                  d="M4.5 48.5C7.48435 48.4073 8.32437 47.699 8 45C5.47585 43.3326 4.96264 44.7626 4.5 48.5Z"
                  fill="#2C6E6B"
                />
                <path
                  d="M8.5 41C12.4493 41.0573 5.7163 33.6376 4.5 37C3.2837 40.3624 4.55074 40.9427 8.5 41Z"
                  fill="#2C6E6B"
                />
                <path
                  d="M19 41C17.5 38 24.3499 33.8606 15.5 30.5C7.38923 33.2254 20.5 44 19 41Z"
                  fill="#2C6E6B"
                />
                <path
                  d="M26 34.5C30.232 37.377 30.0396 39.5194 26.5 44C21.9265 43.5531 22.5796 40.9047 26 34.5Z"
                  fill="#2C6E6B"
                />
                <path
                  d="M30.5 47C32.0118 46.0049 32.1815 45.1549 31 43C28.1821 46.2357 27.9059 47.2181 30.5 47Z"
                  fill="#2C6E6B"
                />
                <path
                  d="M34 47.5C36.6781 47.7803 37.1757 47.1692 36 44.5C34.3746 43.9262 33.8134 44.3281 34 47.5Z"
                  fill="#2C6E6B"
                />
                <path
                  d="M38 52C40 51 41.8645 51.704 40.5 48.5C37.84 48.8319 36 53 38 52Z"
                  fill="#2C6E6B"
                />
                <path
                  d="M42 56.5C45.7714 56.0319 45.4024 55.3153 45 53.5C41.6289 53.4612 38.2286 56.9681 42 56.5Z"
                  fill="#2C6E6B"
                />
                <path
                  d="M34.5 66.1881C34.5 66.1881 33 59.1881 36.5 61.6881C40 64.1881 34.5 66.1881 34.5 66.1881Z"
                  stroke="#2C6E6B"
                />
                <path
                  d="M30.5 60.5C32.3043 61.8556 33.1595 61.7126 34 57.5C32.2298 56.5694 31.5022 57.428 30.5 60.5Z"
                  stroke="#2C6E6B"
                />
                <path
                  d="M30 55C30.2529 57.0216 29.6019 57.4809 27.5 57.5C27.9705 55.0316 28.6112 54.7596 30 55Z"
                  stroke="#2C6E6B"
                />
                <path
                  d="M25.5 53C26.5 58 21.7675 58.3428 16 59C17.9997 54.7222 24.5 48 25.5 53Z"
                  stroke="#2C6E6B"
                />
                <path
                  d="M14.5 48C15.4094 50.7704 14.6128 51.5649 11.5 52C11.5086 48.7598 12.2398 47.9913 14.5 48Z"
                  stroke="#2C6E6B"
                />
                <path
                  d="M4.5 48.5C7.48435 48.4073 8.32437 47.699 8 45C5.47585 43.3326 4.96264 44.7626 4.5 48.5Z"
                  stroke="#2C6E6B"
                />
                <path
                  d="M8.5 41C12.4493 41.0573 5.7163 33.6376 4.5 37C3.2837 40.3624 4.55074 40.9427 8.5 41Z"
                  stroke="#2C6E6B"
                />
                <path
                  d="M19 41C17.5 38 24.3499 33.8606 15.5 30.5C7.38923 33.2254 20.5 44 19 41Z"
                  stroke="#2C6E6B"
                />
                <path
                  d="M26 34.5C30.232 37.377 30.0396 39.5194 26.5 44C21.9265 43.5531 22.5796 40.9047 26 34.5Z"
                  stroke="#2C6E6B"
                />
                <path
                  d="M30.5 47C32.0118 46.0049 32.1815 45.1549 31 43C28.1821 46.2357 27.9059 47.2181 30.5 47Z"
                  stroke="#2C6E6B"
                />
                <path
                  d="M34 47.5C36.6781 47.7803 37.1757 47.1692 36 44.5C34.3746 43.9262 33.8134 44.3281 34 47.5Z"
                  stroke="#2C6E6B"
                />
                <path
                  d="M38 52C40 51 41.8645 51.704 40.5 48.5C37.84 48.8319 36 53 38 52Z"
                  stroke="#2C6E6B"
                />
                <path
                  d="M42 56.5C45.7714 56.0319 45.4024 55.3153 45 53.5C41.6289 53.4612 38.2286 56.9681 42 56.5Z"
                  stroke="#2C6E6B"
                />
              </g>
              <g id="y-leaf4">
                <path
                  d="M41 48C44.0108 47.8436 45.0768 47.4787 44 45.5C40.5338 44.6056 40.0996 45.3345 41 48Z"
                  fill="#2C6E6B"
                />
                <path
                  d="M41 42C43.8973 41.3962 43.8483 40.3433 41.5 37.5C39.7884 40.481 38.7195 42.2404 41 42Z"
                  fill="#2C6E6B"
                />
                <path
                  d="M37.5 38C39.1586 40.1731 39.2904 41.0444 37 41.5C35.2632 40.1115 35.2553 39.3439 37.5 38Z"
                  fill="#2C6E6B"
                />
                <path
                  d="M32 38.5C32.5 41 30.8017 40.5681 32.5 41.5C35.1802 40.4629 31.5 36 32 38.5Z"
                  fill="#2C6E6B"
                />
                <path
                  d="M33.5 35.5C35.927 35.9447 36.7369 35.5792 36.0224 32.5923C35.0709 28.7713 34.5106 30.59 33.5 35.5Z"
                  fill="#2C6E6B"
                />
                <path
                  d="M34 27C35.0054 21.5702 32.6398 20.3 26 19.5C28.3601 27.2246 29.9264 30.0309 34 27Z"
                  fill="#2C6E6B"
                />
                <path
                  d="M42.5 25.5C48.1742 21.7377 48.0308 19.7902 44 16.5C40.2197 21.3777 39.0455 23.7093 42.5 25.5Z"
                  fill="#2C6E6B"
                />
                <path
                  d="M43.2596 30.9739C45.2467 30.8095 45.5534 30.0431 45.2596 27.9739C43.2859 27.8862 43.1739 28.8872 43.2596 30.9739Z"
                  fill="#2C6E6B"
                />
                <path
                  d="M51 16.5C54.9523 16.2164 56.3003 15.5932 55 12.5C51.2424 13.1627 49.7716 13.7948 51 16.5Z"
                  fill="#2C6E6B"
                />
                <path
                  d="M57.5 11C60.778 9.82755 57.6971 1.25287 49 1C47.5806 6.59006 54.222 12.1725 57.5 11Z"
                  fill="#2C6E6B"
                />
                <path
                  d="M66.5 11.5C66.5106 14.2932 65.7518 14.6356 63 13L62.997 12.9806C62.8751 12.1911 62.8058 11.7425 66.5 11.5Z"
                  fill="#2C6E6B"
                />
                <path
                  d="M62.5 21.5C66.1691 22.0094 67.7469 21.945 66 18.5C62.3373 15.7727 62.2388 17.5636 62.5 21.5Z"
                  fill="#2C6E6B"
                />
                <path
                  d="M60 23.5C62.0261 23.9104 63.1873 24.0461 64 29C60.752 30.8111 59.9915 29.3367 60 23.5Z"
                  fill="#2C6E6B"
                />
                <path
                  d="M58.5 36.5C58 39 62.2072 35.449 60.5 33.5C58.6769 32.002 59 34 58.5 36.5Z"
                  fill="#2C6E6B"
                />
                <path
                  d="M63.5 46C65.6997 47.3442 66.5157 46.7072 67.5 44C67.4971 42.4354 66.8019 42.6021 63.5 46Z"
                  fill="#2C6E6B"
                />
                <path
                  d="M67 41C69.6257 39.9637 70.1409 39.2276 68.5 37.5C66.4812 37.5537 65.721 37.9243 67 41Z"
                  fill="#2C6E6B"
                />
                <path
                  d="M70 33.5C73.9706 31.7763 74.936 32.3064 73.5 37C70.3865 37.0259 69.4511 36.3941 70 33.5Z"
                  fill="#2C6E6B"
                />
                <path
                  d="M72 28C70.4027 30.7421 76.9934 28.7562 76.5 24C75.0479 21.6404 73.5973 25.2579 72 28Z"
                  fill="#2C6E6B"
                />
                <path
                  d="M74.5 20C81.1778 18.6698 84.2217 15.8173 82.5 12C75.0485 15.1594 73.6595 18.0306 74.5 20Z"
                  fill="#2C6E6B"
                />
                <path
                  d="M36 32.5C36.0076 32.531 36.0151 32.5618 36.0224 32.5923M36.0224 32.5923C36.7369 35.5792 35.927 35.9447 33.5 35.5C34.5106 30.59 35.0709 28.7713 36.0224 32.5923ZM41 48C44.0108 47.8436 45.0768 47.4787 44 45.5C40.5338 44.6056 40.0996 45.3345 41 48ZM41 42C43.8973 41.3962 43.8483 40.3433 41.5 37.5C39.7884 40.481 38.7195 42.2404 41 42ZM37.5 38C39.1586 40.1731 39.2904 41.0444 37 41.5C35.2632 40.1115 35.2553 39.3439 37.5 38ZM32 38.5C32.5 41 30.8017 40.5681 32.5 41.5C35.1802 40.4629 31.5 36 32 38.5ZM34 27C35.0054 21.5702 32.6398 20.3 26 19.5C28.3601 27.2246 29.9264 30.0309 34 27ZM42.5 25.5C48.1742 21.7377 48.0308 19.7902 44 16.5C40.2197 21.3777 39.0455 23.7093 42.5 25.5ZM43.2596 30.9739C45.2467 30.8095 45.5534 30.0431 45.2596 27.9739C43.2859 27.8862 43.1739 28.8872 43.2596 30.9739ZM51 16.5C54.9523 16.2164 56.3003 15.5932 55 12.5C51.2424 13.1627 49.7716 13.7948 51 16.5ZM57.5 11C60.778 9.82755 57.6971 1.25287 49 1C47.5806 6.59006 54.222 12.1725 57.5 11ZM63 13C65.7518 14.6356 66.5106 14.2932 66.5 11.5C62.7757 11.7445 62.8765 12.1985 63 13ZM62.5 21.5C66.1691 22.0094 67.7469 21.945 66 18.5C62.3373 15.7727 62.2388 17.5636 62.5 21.5ZM60 23.5C62.0261 23.9104 63.1873 24.0461 64 29C60.752 30.8111 59.9915 29.3367 60 23.5ZM58.5 36.5C58 39 62.2072 35.449 60.5 33.5C58.6769 32.002 59 34 58.5 36.5ZM63.5 46C65.6997 47.3442 66.5157 46.7072 67.5 44C67.4971 42.4354 66.8019 42.6021 63.5 46ZM67 41C69.6257 39.9637 70.1409 39.2276 68.5 37.5C66.4812 37.5537 65.721 37.9243 67 41ZM70 33.5C73.9706 31.7763 74.936 32.3064 73.5 37C70.3865 37.0259 69.4511 36.3942 70 33.5ZM72 28C70.4027 30.7421 76.9934 28.7562 76.5 24C75.0479 21.6404 73.5973 25.2579 72 28ZM74.5 20C81.1778 18.6698 84.2217 15.8173 82.5 12C75.0485 15.1594 73.6595 18.0306 74.5 20Z"
                  stroke="#2C6E6B"
                />
              </g>
              <g id="y-leaf5">
                <path
                  d="M74 43.0001C76.1849 42.909 76.7304 42.524 76 41.0001C74.855 39.997 74.4792 40.7393 74 43.0001Z"
                  fill="#2C6E6B"
                />
                <path
                  d="M79 35.5001C80.4743 35.8277 81.1764 35.8124 81 33.5001C78.2356 34.1729 77.071 34.5711 79 35.5001Z"
                  fill="#2C6E6B"
                />
                <path
                  d="M82.5 31.0001C83.3944 28.0511 82.5152 27.7016 80.5 27.5001C79.2292 28.7263 78.1084 29.3858 82.5 31.0001Z"
                  fill="#2C6E6B"
                />
                <path
                  d="M87 28.5C89.5 29 88.6836 23.9504 86.5 21.5C83.165 26.4607 84.5 28 87 28.5Z"
                  fill="#2C6E6B"
                />
                <path
                  d="M94.5 25.5C94.7028 22.0844 93.7144 20.8395 90.5 19.5C91.0247 23.3408 91.3214 25.4907 94.5 25.5Z"
                  fill="#2C6E6B"
                />
                <path
                  d="M98 23.5C101.504 19.6668 102.178 15.5168 96.5 12.5C93.3988 16.8949 94.2439 19.2895 98 23.5Z"
                  fill="#2C6E6B"
                />
                <path
                  d="M84 34.5C85.9225 34.0673 86.6635 34.7046 87 36.5C85.3357 36.8472 84.5121 36.7914 84 34.5Z"
                  fill="#2C6E6B"
                />
                <path
                  d="M88.5 32.5C91.1124 33.0157 91.4635 32.2892 91 30C87.8822 30.1423 87.5272 30.7647 88.5 32.5Z"
                  fill="#2C6E6B"
                />
                <path
                  d="M93 30C94.734 29.7775 95.2944 29.4525 94.5 28C92.9017 27.1523 92.4991 27.4711 93 30Z"
                  fill="#2C6E6B"
                />
                <path
                  d="M96 28.5C96.7213 29.0177 98.5968 27.6259 98 26C97.2264 26.5173 95.2787 27.9823 96 28.5Z"
                  fill="#2C6E6B"
                />
                <path
                  d="M101.5 25C103.655 23.8334 104.536 23.0693 104 21C100.732 22.3713 99.9351 23.2264 101.5 25Z"
                  fill="#2C6E6B"
                />
                <path
                  d="M108 20.5C111.593 18.8222 112.696 17.7177 110.5 15C104.764 18.3658 105.406 19.2657 108 20.5Z"
                  fill="#2C6E6B"
                />
                <path
                  d="M114 21C115.448 22.0932 123.559 22.9869 121.5 13.5C116.51 11.7424 112.552 19.9068 114 21Z"
                  fill="#2C6E6B"
                />
                <path
                  d="M112 28C114.797 28.6723 115.909 28.5123 116 26C112.834 23.9543 112.431 25.226 112 28Z"
                  fill="#2C6E6B"
                />
                <path
                  d="M119.5 28C124.399 27.9732 126.761 27.506 127 22C120.25 22.8993 118.681 24.2404 119.5 28Z"
                  fill="#2C6E6B"
                />
                <path
                  d="M80.5 68.5C83.8539 67.9034 84.661 66.9567 83 63.5C80.1737 64.5764 79.9416 65.8205 80.5 68.5Z"
                  fill="#2C6E6B"
                />
                <path
                  d="M88 63C90.7321 59.9934 90.352 58.7409 87.5 57C85.9465 60.3895 84.9225 62.3813 88 63Z"
                  fill="#2C6E6B"
                />
                <path
                  d="M94.5 56.5C97.6896 56.5105 98.4053 55.5911 98 52.5C94.1328 51.5517 93.3553 52.416 94.5 56.5Z"
                  fill="#2C6E6B"
                />
                <path
                  d="M96.5 47C100.903 48.0831 103.381 47.6998 102.5 43.5C98.4524 41.809 96.495 43.5651 96.5 47Z"
                  fill="#2C6E6B"
                />
                <path
                  d="M107.5 39C110.134 37.7436 110.559 36.7612 107.5 34C104.386 37.407 103.936 38.712 107.5 39Z"
                  fill="#2C6E6B"
                />
                <path
                  d="M74 43.0001C76.1849 42.909 76.7304 42.524 76 41.0001C74.855 39.997 74.4792 40.7393 74 43.0001Z"
                  stroke="#2C6E6B"
                />
                <path
                  d="M79 35.5001C80.4743 35.8277 81.1764 35.8124 81 33.5001C78.2356 34.1729 77.071 34.5711 79 35.5001Z"
                  stroke="#2C6E6B"
                />
                <path
                  d="M82.5 31.0001C83.3944 28.0511 82.5152 27.7016 80.5 27.5001C79.2292 28.7263 78.1084 29.3858 82.5 31.0001Z"
                  stroke="#2C6E6B"
                />
                <path
                  d="M87 28.5C89.5 29 88.6836 23.9504 86.5 21.5C83.165 26.4607 84.5 28 87 28.5Z"
                  stroke="#2C6E6B"
                />
                <path
                  d="M94.5 25.5C94.7028 22.0844 93.7144 20.8395 90.5 19.5C91.0247 23.3408 91.3214 25.4907 94.5 25.5Z"
                  stroke="#2C6E6B"
                />
                <path
                  d="M98 23.5C101.504 19.6668 102.178 15.5168 96.5 12.5C93.3988 16.8949 94.2439 19.2895 98 23.5Z"
                  stroke="#2C6E6B"
                />
                <path
                  d="M84 34.5C85.9225 34.0673 86.6635 34.7046 87 36.5C85.3357 36.8472 84.5121 36.7914 84 34.5Z"
                  stroke="#2C6E6B"
                />
                <path
                  d="M88.5 32.5C91.1124 33.0157 91.4635 32.2892 91 30C87.8822 30.1423 87.5272 30.7647 88.5 32.5Z"
                  stroke="#2C6E6B"
                />
                <path
                  d="M93 30C94.734 29.7775 95.2944 29.4525 94.5 28C92.9017 27.1523 92.4991 27.4711 93 30Z"
                  stroke="#2C6E6B"
                />
                <path
                  d="M96 28.5C96.7213 29.0177 98.5968 27.6259 98 26C97.2264 26.5173 95.2787 27.9823 96 28.5Z"
                  stroke="#2C6E6B"
                />
                <path
                  d="M101.5 25C103.655 23.8334 104.536 23.0693 104 21C100.732 22.3713 99.9351 23.2264 101.5 25Z"
                  stroke="#2C6E6B"
                />
                <path
                  d="M108 20.5C111.593 18.8222 112.696 17.7177 110.5 15C104.764 18.3658 105.406 19.2657 108 20.5Z"
                  stroke="#2C6E6B"
                />
                <path
                  d="M114 21C115.448 22.0932 123.559 22.9869 121.5 13.5C116.51 11.7424 112.552 19.9068 114 21Z"
                  stroke="#2C6E6B"
                />
                <path
                  d="M112 28C114.797 28.6723 115.909 28.5123 116 26C112.834 23.9543 112.431 25.226 112 28Z"
                  stroke="#2C6E6B"
                />
                <path
                  d="M119.5 28C124.399 27.9732 126.761 27.506 127 22C120.25 22.8993 118.681 24.2404 119.5 28Z"
                  stroke="#2C6E6B"
                />
                <path
                  d="M80.5 68.5C83.8539 67.9034 84.661 66.9567 83 63.5C80.1737 64.5764 79.9416 65.8205 80.5 68.5Z"
                  stroke="#2C6E6B"
                />
                <path
                  d="M88 63C90.7321 59.9934 90.352 58.7409 87.5 57C85.9465 60.3895 84.9225 62.3813 88 63Z"
                  stroke="#2C6E6B"
                />
                <path
                  d="M94.5 56.5C97.6896 56.5105 98.4053 55.5911 98 52.5C94.1328 51.5517 93.3553 52.416 94.5 56.5Z"
                  stroke="#2C6E6B"
                />
                <path
                  d="M96.5 47C100.903 48.0831 103.381 47.6998 102.5 43.5C98.4524 41.809 96.495 43.5651 96.5 47Z"
                  stroke="#2C6E6B"
                />
                <path
                  d="M107.5 39C110.134 37.7436 110.559 36.7612 107.5 34C104.386 37.407 103.936 38.712 107.5 39Z"
                  stroke="#2C6E6B"
                />
              </g>
              <g id="y-leaf6">
                <path
                  d="M92 67.5C93.0818 64.9565 92.8394 64.0664 90 64C89.6389 67.7384 90.3838 67.8674 92 67.5Z"
                  fill="#2C6E6B"
                />
                <path
                  d="M97.5 62.9999C99.5394 61.2783 99.4243 60.1706 97.5 57.9999C95.5321 61.1256 95.1357 62.4568 97.5 62.9999Z"
                  fill="#2C6E6B"
                />
                <path
                  d="M101.5 57.4999C104.383 56.4662 104.583 55.3638 102.5 52.4999C100.207 51.9636 100.348 53.5292 101.5 57.4999Z"
                  fill="#2C6E6B"
                />
                <path
                  d="M105.5 50.4999C108.646 49.4235 108.963 48.6533 107 46.9999C102.378 48.3804 103.006 49.1435 105.5 50.4999Z"
                  fill="#2C6E6B"
                />
                <path
                  d="M113 44.5001C112.585 44.0033 114.29 41.4952 111 41.5001C110.142 44.627 113.415 44.9968 113 44.5001Z"
                  fill="#2C6E6B"
                />
                <path
                  d="M118 39.0001C119.613 34.7457 118.937 33.5822 114.5 34.0001C112.754 39.5432 113.563 40.5875 118 39.0001Z"
                  fill="#2C6E6B"
                />
                <path
                  d="M119 33.5C120.636 33.8766 121.128 33.619 120.5 31.5C118.823 30.3939 118.407 30.6798 119 33.5Z"
                  fill="#2C6E6B"
                />
                <path
                  d="M122.5 41C126.364 39.607 127.55 38.4747 127 35.5C123.237 34.9744 121.828 35.6142 122.5 41Z"
                  fill="#2C6E6B"
                />
                <path
                  d="M120 48C120.5 47.5 124.288 46.3488 123 44.5C119.203 42.5378 119.5 48.5 120 48Z"
                  fill="#2C6E6B"
                />
                <path
                  d="M117 54.5C120.21 53.0775 120.832 51.9771 118 49C111.122 54.5208 110.935 55.7103 117 54.5Z"
                  fill="#2C6E6B"
                />
                <path
                  d="M110.5 61.5C109.696 60.4115 109.566 59.6493 111 57.5C116.127 57.3832 116.612 58.0716 110.5 61.5Z"
                  fill="#2C6E6B"
                />
                <path
                  d="M107 65C108.5 65 108.291 63.0614 107 62C104.877 63.1716 105.5 65 107 65Z"
                  fill="#2C6E6B"
                />
                <path
                  d="M122.5 58C131.32 57.8835 132.683 50.2973 130.01 50.6368C124.181 50.1078 122.302 51.4444 122.5 58Z"
                  fill="#2C6E6B"
                />
                <path
                  d="M119.5 66C125.359 69.4644 128.235 70.7862 128 65C123.013 61.625 121.171 61.8868 119.5 66Z"
                  fill="#2C6E6B"
                />
                <path
                  d="M117.5 67.5C119.492 69.105 119.597 69.983 117.5 71.5C115.827 70.1745 115.324 69.3698 117.5 67.5Z"
                  fill="#2C6E6B"
                />
                <path
                  d="M122 72.5C123.931 73.3704 123.804 74.2506 121.5 76.5C119.105 74.5634 118.699 73.6132 122 72.5Z"
                  fill="#2C6E6B"
                />
                <path
                  d="M113 73.5C114.733 71.3927 115.06 70.3263 112.583 69.0426C110.387 68.5526 109.783 68.8716 113 73.5Z"
                  fill="#2C6E6B"
                />
                <path
                  d="M115.5 77.5C116.495 75.6057 116.083 74.9873 114 74.5C112.84 78.1944 113.223 78.7712 115.5 77.5Z"
                  fill="#2C6E6B"
                />
                <path
                  d="M106 75C108.685 75.1682 109.177 74.3421 108 71C105.265 70.3585 104.585 70.9617 106 75Z"
                  fill="#2C6E6B"
                />
                <path
                  d="M101 70.8132C104.754 72.0486 100.5 75.8132 102 78.8132C96.125 82.8657 97.2462 69.5778 101 70.8132Z"
                  fill="#2C6E6B"
                />
                <path
                  d="M130 50.5C130.004 50.5458 130.01 50.6368 130.01 50.6368M130.01 50.6368C132.683 50.2973 131.32 57.8835 122.5 58C122.302 51.4444 124.181 50.1078 130.01 50.6368ZM112.5 69C112.528 69.0142 112.556 69.0284 112.583 69.0426M112.583 69.0426C115.06 70.3263 114.733 71.3927 113 73.5C109.783 68.8715 110.387 68.5526 112.583 69.0426ZM92 67.5C93.0818 64.9565 92.8394 64.0664 90 64C89.6389 67.7384 90.3838 67.8674 92 67.5ZM97.5 62.9999C99.5394 61.2783 99.4243 60.1706 97.5 57.9999C95.5321 61.1256 95.1357 62.4568 97.5 62.9999ZM101.5 57.4999C104.383 56.4662 104.583 55.3638 102.5 52.4999C100.207 51.9636 100.348 53.5292 101.5 57.4999ZM105.5 50.4999C108.646 49.4235 108.963 48.6533 107 46.9999C102.378 48.3804 103.006 49.1435 105.5 50.4999ZM113 44.5001C112.585 44.0033 114.29 41.4952 111 41.5001C110.142 44.627 113.415 44.9968 113 44.5001ZM118 39.0001C119.613 34.7457 118.937 33.5822 114.5 34.0001C112.754 39.5432 113.563 40.5875 118 39.0001ZM119 33.5C120.636 33.8766 121.128 33.619 120.5 31.5C118.823 30.3939 118.407 30.6798 119 33.5ZM122.5 41C126.364 39.607 127.55 38.4747 127 35.5C123.237 34.9744 121.828 35.6142 122.5 41ZM120 48C120.5 47.5 124.288 46.3488 123 44.5C119.203 42.5378 119.5 48.5 120 48ZM117 54.5C120.21 53.0775 120.832 51.9771 118 49C111.122 54.5208 110.935 55.7103 117 54.5ZM110.5 61.5C109.696 60.4115 109.566 59.6493 111 57.5C116.127 57.3832 116.612 58.0716 110.5 61.5ZM107 65C108.5 65 108.291 63.0614 107 62C104.877 63.1716 105.5 65 107 65ZM119.5 66C125.359 69.4644 128.235 70.7862 128 65C123.013 61.625 121.171 61.8868 119.5 66ZM117.5 67.5C119.492 69.105 119.597 69.983 117.5 71.5C115.827 70.1745 115.324 69.3698 117.5 67.5ZM122 72.5C123.931 73.3704 123.804 74.2506 121.5 76.5C119.105 74.5634 118.699 73.6132 122 72.5ZM115.5 77.5C116.495 75.6057 116.083 74.9873 114 74.5C112.84 78.1944 113.223 78.7712 115.5 77.5ZM106 75C108.685 75.1682 109.177 74.3421 108 71C105.265 70.3585 104.585 70.9617 106 75ZM101 70.8132C104.754 72.0486 100.5 75.8132 102 78.8132C96.125 82.8657 97.2462 69.5778 101 70.8132Z"
                  stroke="#2C6E6B"
                />
              </g>
            </g>
            {/* <!-- Tree End --> */}
          </g>
        </g>
        <defs>
          <clipPath id="clip0_2_7">
            <rect width="179" height="169" fill="white" />
          </clipPath>
        </defs>
      </svg>