<svg
        width="201"
        height="182"
        viewBox="201 182"
        fill="none"
        xmlns="http://www.w3.org/2000/svg"
      >
        <g id="Xylem SVG" clipPath="url(#clip0_12_32)">

          {/* <!-- Static Letters --> */}
          <g id="static-letters">
            <path
              id="X"
              d="M43.9717 117.464V116H57.1057V117.464L52.0463 119.515L41.953 133.012L53.4006 148.852L58 150.56V152H43.2562V150.56L47.8557 148.949L39.1167 136.795L29.9689 149.047L34.4151 150.56V152H21V150.56L26.136 148.656L37.1236 134.061L26.4938 119.271L21.7921 117.464V116H36.1271V117.464L32.0387 119.271L40.011 130.254L48.2645 119.222L43.9717 117.464Z"
              fill="#9D1A1A"
            />
            <path
              id="l"
              d="M103 153.576L95.7822 154C94.5941 154 94 153.718 94 153.153C94 152.644 94.8317 152.136 96.495 151.627C98.2178 151.119 99.198 150.582 99.4356 150.017C99.7327 149.452 99.8812 148.944 99.8812 148.492V105.78C99.8812 102.22 98.5149 100.158 95.7822 99.5932C95.3069 99.4802 95.0693 99.113 95.0693 98.4915C95.0693 97.8701 95.2772 97.5311 95.6931 97.4746C97.2376 97.1356 100.683 96.0057 106.03 94.0847H106.119L106.208 94C106.564 94 106.743 94.1977 106.743 94.5932L106.564 96.1186C106.446 97.1921 106.327 98.5763 106.208 100.271C106.149 101.91 106.119 103.859 106.119 106.119V148.492C106.119 149.621 106.475 150.356 107.188 150.695C107.96 151.034 108.97 151.401 110.218 151.797C111.406 152.249 112 152.701 112 153.153C112 153.718 111.406 154 110.218 154L103 153.576Z"
              fill="#9D1A1A"
            />
            <path
              id="e"
              d="M130.633 120C133.113 120 135.18 120.649 136.833 121.948C138.487 123.247 139.313 125.173 139.313 127.726C139.313 129.786 138.165 132.092 135.869 134.645C133.619 137.153 130.955 139.459 127.878 141.564C124.847 143.669 122.252 145.147 120.093 145.998C121.241 147.79 122.55 149.044 124.02 149.76C125.49 150.432 127.212 150.768 129.187 150.768C131.391 150.768 133.573 150.23 135.731 149.155C137.936 148.036 139.75 146.603 141.173 144.856L142 146.267C139.75 149.088 137.361 151.26 134.836 152.783C132.31 154.261 129.21 155 125.536 155C122.734 155 120.231 154.328 118.027 152.985C115.822 151.641 114.1 149.85 112.86 147.61C111.62 145.326 111 142.863 111 140.221C111 136.907 111.919 133.682 113.756 130.547C115.593 127.412 118.027 124.882 121.058 122.956C124.089 120.985 127.281 120 130.633 120ZM127.051 124.232C125.03 124.232 123.216 124.859 121.609 126.113C120.047 127.367 118.807 128.98 117.889 130.95C117.016 132.921 116.58 134.958 116.58 137.063C116.58 139.84 117.246 142.214 118.578 144.184C120.507 143.333 122.596 142.057 124.847 140.355C127.097 138.608 129.003 136.727 130.564 134.712C132.126 132.697 132.907 130.861 132.907 129.203C132.907 125.889 130.955 124.232 127.051 124.232Z"
              fill="#9D1A1A"
            />
            <path
              id="m"
              d="M152.163 125.215C153.731 123.326 155.488 121.833 157.432 120.737C159.377 119.579 161.416 119 163.549 119C165.87 119 167.909 119.548 169.665 120.645C171.484 121.681 172.802 123.204 173.617 125.215C175.311 123.143 177.224 121.59 179.357 120.554C181.553 119.518 183.811 119 186.132 119C189.52 119 192.217 120.066 194.225 122.199C196.295 124.271 197.33 127.287 197.33 131.247V143.952C197.33 147.303 197.769 149.618 198.648 150.898C199.526 152.177 200.31 152.878 201 153H187.638C188.391 152.878 189.175 152.177 189.99 150.898C190.869 149.618 191.308 147.272 191.308 143.86V133.441C191.308 131.369 191.026 129.724 190.461 128.505C189.896 127.287 189.144 126.281 188.203 125.489C186.76 124.332 185.035 123.753 183.027 123.753C180.831 123.753 178.887 124.484 177.193 125.946C175.562 127.348 174.746 129.328 174.746 131.887V143.86C174.746 147.272 175.154 149.618 175.97 150.898C176.848 152.177 177.663 152.878 178.416 153H165.054C165.807 152.878 166.591 152.177 167.407 150.898C168.285 149.618 168.724 147.272 168.724 143.86V133.441C168.724 131.369 168.442 129.724 167.877 128.505C167.313 127.287 166.56 126.281 165.619 125.489C164.176 124.332 162.451 123.753 160.443 123.753C158.185 123.753 156.24 124.484 154.609 125.946C152.978 127.348 152.163 129.328 152.163 131.887V143.86C152.163 147.333 152.602 149.71 153.48 150.989C154.358 152.208 155.174 152.878 155.927 153H142.565C143.317 152.878 144.102 152.177 144.917 150.898C145.733 149.618 146.14 147.272 146.14 143.86V130.059C146.14 127.5 145.701 125.763 144.823 124.849C144.007 123.875 143.066 123.387 142 123.387L152.163 119V125.215Z"
              fill="#9D1A1A"
            />
            <path
              id="dot"
              d="M135 106C135 110.418 131.418 114 127 114C122.582 114 119 110.418 119 106C119 101.582 122.582 98 127 98C131.418 98 135 101.582 135 106Z"
              fill="#9D1A1A"
            />
          </g>

          {/* <!-- Tree Roots --> */}
          <g id="tree-root">
            <path
              id="Y-root"
              d="M57 177.5C43.3285 162.511 39.7812 161.984 25.5 166C29.2833 163.63 31.0516 161.585 41 161C50.3763 164.058 53.1053 166.89 58 172.5C67.4726 177.789 72.5975 179.96 78.5 170H92C101.348 176.03 107.264 175.478 118.5 170.5C123.412 166.757 123.928 166.816 119 162C114.072 157.184 123.378 153.862 130 158C136.622 162.138 122.175 157.583 122.5 160.5C126.35 163.221 127.098 165.618 124 170.5C132.625 168.28 136.874 167.369 144 166C151.792 165.646 154.218 166.808 155.5 171C152.356 167.922 149.824 167.495 144 169C146.107 171.772 147.311 173.742 146.5 176C143.444 182.194 133.03 172.751 138.5 175.5C143.97 178.249 146.731 170.105 139.5 170C132.269 169.895 123.449 176.167 107.5 178C98.6061 178.539 93.7577 177.518 85.5 172C76.0866 184.074 66.9142 184.059 57 177.5Z"
              fill="black"
              stroke="black"
            />
          </g>

          {/* <!-- Tree Trunk --> */}
          <g id="tree-trunk">
            <path
              id="Y-trunk"
              d="M86.5 150C87.1066 159.432 88.0893 163.853 91.5 169.5H79C80.5025 162.699 80.7189 156.179 81 150C79.2352 152.168 77.6693 153.009 73.5 153.5C67.3544 154.092 63.4224 151.435 61.5 145C61.4501 130.065 62.062 122.044 60 106H67C66.7376 120.953 66.2647 128.037 66.9576 144C69.3983 148.722 72.2257 152.958 80.9576 144L81.5 106H87L86.5 150Z"
              fill="black"
              stroke="black"
            />
          </g>

          {/* <!-- Tree Branches --> */}
          <g id="tree-branches">
            <g id="Y-branch1">
              <path
                d="M81.5 105.186L82 93.1856C84.1624 76.5008 86.4029 69.8643 91.5 57.4514C91.7651 50.9277 94.9333 45.0331 97.8951 39.5542C98.2415 38.8276 98.6104 38.1368 99 37.5C98.6392 38.1784 98.2688 38.863 97.8951 39.5542C95.0144 45.5978 93.6953 54.112 95 54.5C96.4616 54.9346 104.036 42.5384 111 38.5C123.729 28.5066 127.753 27.0055 128 27.5C121.405 33.6816 117.608 36.106 115.962 36.8506C121.43 36.0034 125.743 35.3964 130.5 35.5C133.682 36.213 127.317 36.7874 113.5 39C105.461 44.7046 100.553 50.2641 96.5 57.4514C100.167 60.1473 112.568 46.9559 115 43C117.432 39.0441 109.888 53.3069 99.5 62.6856C94.4167 66.416 92.0346 69.3523 89.5 77.6856C87.935 83.8079 87.5241 86.0132 87.5 92C88.7993 92.1664 89.4501 92.332 90.5 89.5C90.7452 84.5645 93.8502 74.6365 93 79.6856C92.1498 84.7347 92.7604 86.4524 94 87C98.2723 82.6648 102.252 79.9185 112 74.5C121.156 66.811 127.072 58.3495 133.5 48.5C127.778 58.4868 122.334 67.1474 113.5 75.5C127.128 75.534 132.366 70.1019 137.5 66.5C142.634 62.8981 135.761 70.8864 129.5 74C123.239 77.1136 115.935 77.3615 114.5 77.5C102.576 81.4378 91.3192 89.8543 87 105.186H81.5Z"
                fill="black"
              />
              <path
                d="M81.5 105.186L82 93.1856C84.1624 76.5008 86.4029 69.8643 91.5 57.4514C91.7986 50.1047 95.779 43.5559 99 37.5C95.3695 43.4332 93.5384 54.0653 95 54.5C96.4616 54.9346 104.036 42.5384 111 38.5C123.729 28.5066 127.753 27.0055 128 27.5C118.289 36.602 114.645 37.5582 115 37C120.932 36.0761 125.468 35.3904 130.5 35.5C133.682 36.213 127.317 36.7874 113.5 39C105.461 44.7046 100.553 50.2641 96.5 57.4514C100.167 60.1473 112.568 46.9559 115 43C117.432 39.0441 109.888 53.3069 99.5 62.6856C94.4167 66.416 92.0346 69.3523 89.5 77.6856C87.935 83.8079 87.5241 86.0132 87.5 92C88.7993 92.1664 89.4501 92.332 90.5 89.5C90.7452 84.5645 93.8502 74.6365 93 79.6856C92.1498 84.7347 92.7604 86.4524 94 87C98.2723 82.6648 102.252 79.9185 112 74.5C121.156 66.811 127.072 58.3495 133.5 48.5C127.778 58.4868 122.334 67.1474 113.5 75.5C127.128 75.534 132.366 70.1019 137.5 66.5C142.634 62.8981 135.761 70.8864 129.5 74C123.239 77.1136 115.935 77.3615 114.5 77.5C102.576 81.4378 91.3192 89.8543 87 105.186H81.5Z"
                stroke="black"
              />
            </g>

            <path
              id="Y-branch2"
              d="M67 105L59.5634 105L55.339 98.386C46.4007 85.4688 26.1735 78.5951 19.5 78.5438C12.8266 78.4925 20.369 75.5546 26.8927 78.0351C30.5133 80.1978 29.6265 79.3031 39.4975 83.1228C48.3604 88.1752 53.2301 90.6646 59.0354 96.8596V84.1403C57.1354 76.6102 55.4338 74.315 52.1707 70.9123C45.9135 58.207 21.4887 49.7234 20 49.5C18.5113 49.2766 30.1333 50.3506 38.5 55.5C48.9618 55.9894 56.9812 70.1554 59.5634 73.9649C62.1456 77.7744 60.2407 47.3485 58.5073 47.5087C53.1696 43.117 47.7134 31.3872 49.5 32.7543C51.2866 34.1214 54.2331 40.7193 58.5073 44.4561C61.9577 29.6853 60.0691 23.6338 62.2037 27.6666C64.3382 31.6994 63.1331 92.2437 65.3719 96.8596C67.6107 101.476 72.8496 76.5914 66.428 56.1579C66.428 56.1579 65.3719 39.3684 67.4841 30.2104C69.5963 21.0525 73.3336 15.2493 78.5732 8.33323C81.3239 7.81279 82.8419 7.53951 81.2134 10.3683C77.5877 13.3648 75.155 16.2919 69.0683 32.7543C68.6559 32.0328 69.8886 56.814 70.6524 54.6315C71.4163 52.449 83.7544 26.8969 83.3256 27.6666C82.8968 28.4363 83.8536 18.5087 84.3817 20.035C84.9097 21.5613 83.5534 21.1012 84.9098 25.1227C86.2661 29.1443 88.2534 25.9606 72.5 56.1579C73.3427 58.9705 72.4614 63.7611 75.5 61C78.5387 58.2389 81.8054 50.8849 82 51.5C82.1946 52.1151 80.8746 58.8953 76 64.5932C73.7247 66.5947 73.6767 72.9525 73.0952 84.7775C72.9069 93.5761 70.6772 98.2387 67 105Z"
              fill="black"
              stroke="black"
            />
          </g>

          {/* <!-- Tree Leaves --> */}
          <g id="tree-leaves">
            <g id="Y-leaf1">
              <path
                d="M52.2198 97.409C53.3169 96.9066 54.0808 104.164 48.5659 106C46.5469 100.612 47.2127 98.3015 52.2198 97.409Z"
                fill="#2C6E6B"
              />
              <path
                d="M45.9244 96.7616C49.0489 96.334 48.0376 91.8706 48.0376 92.4141C48.0376 92.9575 45.475 95.8392 45.9244 96.7616Z"
                fill="#2C6E6B"
              />
              <path
                d="M42.7546 87.5232C43.8781 91.3092 40.3889 92.0872 38.2757 94.8043C36.1625 97.5215 40.3499 85.695 42.7546 87.5232Z"
                fill="#2C6E6B"
              />
              <path
                d="M30.6037 90.2404C33.7128 89.8785 33.7735 85.3494 34.3018 84.806C34.8301 84.2625 30.8976 85.1747 30.6037 90.2404Z"
                fill="#2C6E6B"
              />
              <path
                d="M27.4339 82.0888C27.1478 84.2769 27.9377 90.5296 22.1509 89.1535C22.1121 84.4845 27.7201 79.9007 27.4339 82.0888Z"
                fill="#2C6E6B"
              />
              <path
                d="M15.283 78.8282C12.7112 78.9257 13.4541 82.7972 10 78.8282C12.1722 74.5574 17.8548 78.7307 15.283 78.8282Z"
                fill="#2C6E6B"
              />
              <path
                d="M18.4528 72.8504C20.239 72.2679 20.479 63.4396 11.5849 65.2423C10.6717 70.1924 16.6667 73.433 18.4528 72.8504Z"
                fill="#2C6E6B"
              />
              <path
                d="M27.4339 75.0242C28.3785 73.1491 26.2186 70.5799 27.9622 69.0464C33.4696 74.9734 26.4893 76.8992 27.4339 75.0242Z"
                fill="#2C6E6B"
              />
              <path
                d="M33.7735 77.1979C36.7958 76.7899 37.0622 75.8606 35.8867 73.3939C33.1348 75.755 32.3937 76.7146 33.7735 77.1979Z"
                fill="#2C6E6B"
              />
              <path
                d="M52.2641 97.305L52.2198 97.409M52.2198 97.409C53.3169 96.9066 54.0808 104.164 48.5659 106C46.5469 100.612 47.2127 98.3015 52.2198 97.409ZM45.9244 96.7616C49.0489 96.334 48.0376 91.8706 48.0376 92.4141C48.0376 92.9575 45.475 95.8392 45.9244 96.7616ZM42.7546 87.5232C43.8781 91.3092 40.3889 92.0872 38.2757 94.8043C36.1625 97.5215 40.3499 85.695 42.7546 87.5232ZM30.6037 90.2404C33.7128 89.8785 33.7735 85.3494 34.3018 84.806C34.8301 84.2625 30.8976 85.1747 30.6037 90.2404ZM27.4339 82.0888C27.1478 84.2769 27.9377 90.5296 22.1509 89.1535C22.1121 84.4845 27.7201 79.9007 27.4339 82.0888ZM15.283 78.8282C12.7112 78.9257 13.4541 82.7972 10 78.8282C12.1722 74.5574 17.8548 78.7307 15.283 78.8282ZM18.4528 72.8504C20.239 72.2679 20.479 63.4396 11.5849 65.2423C10.6717 70.1924 16.6667 73.433 18.4528 72.8504ZM27.4339 75.0242C28.3785 73.1491 26.2186 70.5799 27.9622 69.0464C33.4696 74.9734 26.4893 76.8992 27.4339 75.0242ZM33.7735 77.1979C36.7958 76.7899 37.0622 75.8606 35.8867 73.3939C33.1348 75.755 32.3937 76.7146 33.7735 77.1979Z"
                stroke="#2C6E6B"
              />
            </g>

            <g id="Y-leaf2">
              <path
                d="M39.9723 79.6363C41.8665 84.6364 42.4032 75.5978 41.5685 72C39.134 72.1926 38.078 74.6362 39.9723 79.6363Z"
                fill="#2C6E6B"
              />
              <path
                d="M45.0591 83C47.1874 82.4546 47.558 80.9355 46.1233 78.091C44.9424 77.5244 42.9307 83.5455 45.0591 83Z"
                fill="#2C6E6B"
              />
              <path
                d="M51.9763 77.0001C53.5726 80.2728 53.0405 84.0909 51.9763 85.7273C50.9121 87.3636 49.8479 83.5455 49.8479 83.5455C49.4717 82.5157 49.4436 81.9215 49.8479 80.8182C49.9935 79.3886 50.38 73.7274 51.9763 77.0001Z"
                fill="#2C6E6B"
              />
              <path
                d="M54.6368 89C56.7652 89 57.4004 88.0918 56.7652 85.7273C54.9123 85.3891 52.5084 89 54.6368 89Z"
                fill="#2C6E6B"
              />
              <path
                d="M39.9723 79.6363C41.8665 84.6364 42.4032 75.5978 41.5685 72C39.134 72.1926 38.078 74.6362 39.9723 79.6363Z"
                stroke="#2C6E6B"
              />
              <path
                d="M45.0591 83C47.1874 82.4546 47.558 80.9355 46.1233 78.091C44.9424 77.5244 42.9307 83.5455 45.0591 83Z"
                stroke="#2C6E6B"
              />
              <path
                d="M51.9763 77.0001C53.5726 80.2728 53.0405 84.0909 51.9763 85.7273C50.9121 87.3636 49.8479 83.5455 49.8479 83.5455C49.4717 82.5157 49.4436 81.9215 49.8479 80.8182C49.9935 79.3886 50.38 73.7274 51.9763 77.0001Z"
                stroke="#2C6E6B"
              />
              <path
                d="M54.6368 89C56.7652 89 57.4004 88.0918 56.7652 85.7273C54.9123 85.3891 52.5084 89 54.6368 89Z"
                stroke="#2C6E6B"
              />
            </g>

            <g id="Y-leaf3">
              <path
                d="M46.5238 74C46.5238 74 44.9213 66.5465 48.6604 69.2085C52.3995 71.8704 46.5238 74 46.5238 74Z"
                fill="#2C6E6B"
              />
              <path
                d="M42.2505 67.9435C44.178 69.3868 45.0917 69.2346 45.9896 64.7491C44.0984 63.7582 43.3211 64.6724 42.2505 67.9435Z"
                fill="#2C6E6B"
              />
              <path
                d="M41.7163 62.0872C41.9865 64.2397 41.291 64.7288 39.0455 64.7491C39.5482 62.1208 40.2327 61.8312 41.7163 62.0872Z"
                fill="#2C6E6B"
              />
              <path
                d="M36.9089 59.9576C37.9772 65.2815 32.9215 65.6465 26.7599 66.3463C28.8962 61.7913 35.8406 54.6337 36.9089 59.9576Z"
                fill="#2C6E6B"
              />
              <path
                d="M25.1574 54.6337C26.1289 57.5836 25.2779 58.4295 21.9525 58.8928C21.9617 55.4427 22.7428 54.6244 25.1574 54.6337Z"
                fill="#2C6E6B"
              />
              <path
                d="M14.4742 55.1661C17.6625 55.0674 18.5599 54.3132 18.2134 51.4393C15.5168 49.664 14.9685 51.1865 14.4742 55.1661Z"
                fill="#2C6E6B"
              />
              <path
                d="M18.7475 47.1802C22.9666 47.2412 15.7736 39.3408 14.4742 42.9211C13.1748 46.5013 14.5284 47.1192 18.7475 47.1802Z"
                fill="#2C6E6B"
              />
              <path
                d="M29.9648 47.1802C28.3624 43.9859 35.6803 39.5783 26.2257 36C17.5609 38.9019 31.5673 50.3746 29.9648 47.1802Z"
                fill="#2C6E6B"
              />
              <path
                d="M37.4431 40.2591C41.9642 43.3225 41.7586 45.6036 37.9772 50.3746C33.0913 49.8987 33.789 47.0788 37.4431 40.2591Z"
                fill="#2C6E6B"
              />
              <path
                d="M42.2505 53.5689C43.8656 52.5093 44.0469 51.6043 42.7847 49.3098C39.7742 52.7551 39.4792 53.8011 42.2505 53.5689Z"
                fill="#2C6E6B"
              />
              <path
                d="M45.9896 54.1013C48.8506 54.3997 49.3823 53.7491 48.1262 50.9069C46.3898 50.296 45.7903 50.7239 45.9896 54.1013Z"
                fill="#2C6E6B"
              />
              <path
                d="M50.2629 58.8928C52.3995 57.828 54.3913 58.5776 52.9337 55.1661C50.092 55.5195 48.1262 59.9576 50.2629 58.8928Z"
                fill="#2C6E6B"
              />
              <path
                d="M54.5361 63.6843C58.5652 63.1859 58.171 62.4229 57.7411 60.49C54.1397 60.4487 50.5071 64.1828 54.5361 63.6843Z"
                fill="#2C6E6B"
              />
              <path
                d="M46.5238 74C46.5238 74 44.9213 66.5465 48.6604 69.2085C52.3995 71.8704 46.5238 74 46.5238 74Z"
                stroke="#2C6E6B"
              />
              <path
                d="M42.2505 67.9435C44.178 69.3868 45.0917 69.2346 45.9896 64.7491C44.0984 63.7582 43.3211 64.6724 42.2505 67.9435Z"
                stroke="#2C6E6B"
              />
              <path
                d="M41.7163 62.0872C41.9865 64.2397 41.291 64.7288 39.0455 64.7491C39.5482 62.1208 40.2327 61.8312 41.7163 62.0872Z"
                stroke="#2C6E6B"
              />
              <path
                d="M36.9089 59.9576C37.9772 65.2815 32.9215 65.6465 26.7599 66.3463C28.8962 61.7913 35.8406 54.6337 36.9089 59.9576Z"
                stroke="#2C6E6B"
              />
              <path
                d="M25.1574 54.6337C26.1289 57.5836 25.2779 58.4295 21.9525 58.8928C21.9617 55.4427 22.7428 54.6244 25.1574 54.6337Z"
                stroke="#2C6E6B"
              />
              <path
                d="M14.4742 55.1661C17.6625 55.0674 18.5599 54.3132 18.2134 51.4393C15.5168 49.664 14.9685 51.1865 14.4742 55.1661Z"
                stroke="#2C6E6B"
              />
              <path
                d="M18.7475 47.1802C22.9666 47.2412 15.7736 39.3408 14.4742 42.9211C13.1748 46.5013 14.5284 47.1192 18.7475 47.1802Z"
                stroke="#2C6E6B"
              />
              <path
                d="M29.9648 47.1802C28.3624 43.9859 35.6803 39.5783 26.2257 36C17.5609 38.9019 31.5673 50.3746 29.9648 47.1802Z"
                stroke="#2C6E6B"
              />
              <path
                d="M37.4431 40.2591C41.9642 43.3225 41.7586 45.6036 37.9772 50.3746C33.0913 49.8987 33.789 47.0788 37.4431 40.2591Z"
                stroke="#2C6E6B"
              />
              <path
                d="M42.2505 53.5689C43.8656 52.5093 44.0469 51.6043 42.7847 49.3098C39.7742 52.7551 39.4792 53.8011 42.2505 53.5689Z"
                stroke="#2C6E6B"
              />
              <path
                d="M45.9896 54.1013C48.8506 54.3997 49.3823 53.7491 48.1262 50.9069C46.3898 50.296 45.7903 50.7239 45.9896 54.1013Z"
                stroke="#2C6E6B"
              />
              <path
                d="M50.2629 58.8928C52.3995 57.828 54.3913 58.5776 52.9337 55.1661C50.092 55.5195 48.1262 59.9576 50.2629 58.8928Z"
                stroke="#2C6E6B"
              />
              <path
                d="M54.5361 63.6843C58.5652 63.1859 58.171 62.4229 57.7411 60.49C54.1397 60.4487 50.5071 64.1828 54.5361 63.6843Z"
                stroke="#2C6E6B"
              />
            </g>

            <g id="Y-leaf4">
              <path
                d="M52.7969 54C55.9676 53.8337 57.0903 53.4454 55.9562 51.3404C52.3058 50.3889 51.8486 51.1644 52.7969 54Z"
                fill="#2C6E6B"
              />
              <path
                d="M52.7969 47.617C55.8481 46.9746 55.7965 45.8545 53.3234 42.8298C51.5209 46.0011 50.3952 47.8728 52.7969 47.617Z"
                fill="#2C6E6B"
              />
              <path
                d="M49.1109 43.3617C50.8577 45.6735 50.9964 46.6004 48.5843 47.0851C46.7552 45.608 46.7469 44.7914 49.1109 43.3617Z"
                fill="#2C6E6B"
              />
              <path
                d="M43.3187 43.8936C43.8453 46.5532 42.0568 46.0937 43.8453 47.0851C46.6679 45.9818 42.7922 41.234 43.3187 43.8936Z"
                fill="#2C6E6B"
              />
              <path
                d="M44.8984 40.7021C47.4543 41.1752 48.3073 40.7864 47.5548 37.6088C46.5528 33.5439 45.9627 35.4787 44.8984 40.7021Z"
                fill="#2C6E6B"
              />
              <path
                d="M45.425 31.6596C46.4838 25.8832 43.9925 24.5319 37 23.6808C39.4855 31.8985 41.1349 34.8839 45.425 31.6596Z"
                fill="#2C6E6B"
              />
              <path
                d="M54.3765 30.0638C60.3522 26.0614 60.2011 23.9896 55.9562 20.4894C51.9751 25.6784 50.7385 28.1588 54.3765 30.0638Z"
                fill="#2C6E6B"
              />
              <path
                d="M55.1765 35.8871C57.2692 35.7123 57.5922 34.8969 57.2827 32.6957C55.2042 32.6024 55.0862 33.6672 55.1765 35.8871Z"
                fill="#2C6E6B"
              />
              <path
                d="M63.3281 20.4894C67.4903 20.1877 68.9099 19.5247 67.5406 16.234C63.5833 16.939 62.0344 17.6115 63.3281 20.4894Z"
                fill="#2C6E6B"
              />
              <path
                d="M70.1734 14.6383C73.6255 13.391 70.3809 4.26901 61.2218 4C59.727 9.94687 66.7212 15.8856 70.1734 14.6383Z"
                fill="#2C6E6B"
              />
              <path
                d="M79.6515 15.1702C79.6627 18.1417 78.8635 18.506 75.9655 16.766L75.9624 16.7453C75.834 15.9055 75.761 15.4282 79.6515 15.1702Z"
                fill="#2C6E6B"
              />
              <path
                d="M75.439 25.8085C79.303 26.3505 80.9646 26.2819 79.1249 22.617C75.2677 19.7156 75.1639 21.6208 75.439 25.8085Z"
                fill="#2C6E6B"
              />
              <path
                d="M72.8062 27.9362C74.94 28.3728 76.1628 28.5171 77.0187 33.7872C73.5981 35.7139 72.7972 34.1454 72.8062 27.9362Z"
                fill="#2C6E6B"
              />
              <path
                d="M71.2265 41.766C70.6999 44.4255 75.1306 40.6479 73.3327 38.5745C71.4127 36.9808 71.7531 39.1064 71.2265 41.766Z"
                fill="#2C6E6B"
              />
              <path
                d="M76.4921 51.8723C78.8087 53.3023 79.668 52.6247 80.7046 49.7447C80.7016 48.0802 79.9695 48.2576 76.4921 51.8723Z"
                fill="#2C6E6B"
              />
              <path
                d="M80.178 46.5532C82.9433 45.4508 83.4858 44.6677 81.7577 42.8298C79.6317 42.8869 78.8311 43.2812 80.178 46.5532Z"
                fill="#2C6E6B"
              />
              <path
                d="M83.3374 38.5745C87.5189 36.7407 88.5357 37.3047 87.0233 42.2979C83.7444 42.3254 82.7593 41.6533 83.3374 38.5745Z"
                fill="#2C6E6B"
              />
              <path
                d="M85.4437 32.7234C83.7615 35.6405 90.7023 33.5278 90.1827 28.4681C88.6534 25.9579 87.1258 29.8063 85.4437 32.7234Z"
                fill="#2C6E6B"
              />
              <path
                d="M88.0765 24.2128C95.109 22.7977 98.3146 19.763 96.5014 15.7021C88.654 19.0632 87.1913 22.1177 88.0765 24.2128Z"
                fill="#2C6E6B"
              />
              <path
                d="M47.5312 37.5106C47.5392 37.5436 47.5471 37.5764 47.5548 37.6088M47.5548 37.6088C48.3073 40.7864 47.4543 41.1752 44.8984 40.7021C45.9627 35.4787 46.5528 33.5439 47.5548 37.6088ZM52.7969 54C55.9676 53.8337 57.0903 53.4454 55.9562 51.3404C52.3058 50.3889 51.8486 51.1644 52.7969 54ZM52.7969 47.617C55.8481 46.9746 55.7965 45.8546 53.3234 42.8298C51.5209 46.0011 50.3952 47.8728 52.7969 47.617ZM49.1109 43.3617C50.8577 45.6735 50.9964 46.6004 48.5843 47.0851C46.7552 45.608 46.7469 44.7914 49.1109 43.3617ZM43.3187 43.8936C43.8453 46.5532 42.0568 46.0937 43.8453 47.0851C46.6679 45.9818 42.7922 41.234 43.3187 43.8936ZM45.425 31.6596C46.4838 25.8832 43.9925 24.5319 37 23.6808C39.4855 31.8985 41.1349 34.8839 45.425 31.6596ZM54.3765 30.0638C60.3522 26.0614 60.2011 23.9896 55.9562 20.4894C51.9751 25.6784 50.7385 28.1588 54.3765 30.0638ZM55.1765 35.8871C57.2692 35.7123 57.5922 34.8969 57.2827 32.6957C55.2042 32.6024 55.0862 33.6672 55.1765 35.8871ZM63.3281 20.4894C67.4903 20.1877 68.9099 19.5247 67.5406 16.234C63.5833 16.939 62.0344 17.6115 63.3281 20.4894ZM70.1734 14.6383C73.6255 13.391 70.3809 4.26901 61.2218 4C59.727 9.94687 66.7212 15.8856 70.1734 14.6383ZM75.9655 16.766C78.8635 18.506 79.6627 18.1417 79.6515 15.1702C75.7293 15.4303 75.8354 15.9133 75.9655 16.766ZM75.439 25.8085C79.303 26.3505 80.9646 26.2819 79.1249 22.617C75.2677 19.7156 75.1639 21.6208 75.439 25.8085ZM72.8062 27.9362C74.94 28.3728 76.1628 28.5171 77.0187 33.7872C73.5981 35.7139 72.7972 34.1454 72.8062 27.9362ZM71.2265 41.766C70.6999 44.4255 75.1306 40.6479 73.3327 38.5745C71.4127 36.9808 71.7531 39.1064 71.2265 41.766ZM76.4921 51.8723C78.8087 53.3023 79.668 52.6247 80.7046 49.7447C80.7016 48.0803 79.9695 48.2576 76.4921 51.8723ZM80.178 46.5532C82.9433 45.4508 83.4858 44.6677 81.7577 42.8298C79.6317 42.8869 78.8311 43.2812 80.178 46.5532ZM83.3374 38.5745C87.5189 36.7407 88.5357 37.3047 87.0233 42.2979C83.7444 42.3254 82.7593 41.6533 83.3374 38.5745ZM85.4437 32.7234C83.7615 35.6405 90.7023 33.5278 90.1827 28.4681C88.6534 25.9579 87.1258 29.8063 85.4437 32.7234ZM88.0765 24.2128C95.109 22.7977 98.3146 19.763 96.5014 15.7021C88.654 19.0632 87.1913 22.1177 88.0765 24.2128Z"
                stroke="#2C6E6B"
              />
            </g>

            <g id="Y-leaf5">
              <path
                d="M88 48.6787C90.3085 48.5811 90.8849 48.1686 90.1132 46.5359C88.9034 45.4611 88.5063 46.2564 88 48.6787Z"
                fill="#2C6E6B"
              />
              <path
                d="M93.283 40.643C94.8407 40.994 95.5826 40.9776 95.3962 38.5001C92.4753 39.221 91.2448 39.6476 93.283 40.643Z"
                fill="#2C6E6B"
              />
              <path
                d="M96.9811 35.8216C97.9262 32.6619 96.9972 32.2874 94.8679 32.0716C93.5252 33.3854 92.3409 34.092 96.9811 35.8216Z"
                fill="#2C6E6B"
              />
              <path
                d="M101.736 33.1429C104.377 33.6786 103.515 28.2683 101.208 25.6429C97.6838 30.9579 99.0943 32.6071 101.736 33.1429Z"
                fill="#2C6E6B"
              />
              <path
                d="M109.66 29.9286C109.875 26.269 108.83 24.9352 105.434 23.5C105.988 27.6152 106.302 29.9186 109.66 29.9286Z"
                fill="#2C6E6B"
              />
              <path
                d="M113.358 27.7857C117.061 23.6787 117.773 19.2323 111.774 16C108.497 20.7088 109.39 23.2744 113.358 27.7857Z"
                fill="#2C6E6B"
              />
              <path
                d="M98.566 39.5714C100.597 39.1078 101.38 39.7907 101.736 41.7143C99.9773 42.0863 99.1071 42.0265 98.566 39.5714Z"
                fill="#2C6E6B"
              />
              <path
                d="M103.321 37.4286C106.081 37.9811 106.452 37.2028 105.962 34.75C102.668 34.9025 102.293 35.5693 103.321 37.4286Z"
                fill="#2C6E6B"
              />
              <path
                d="M108.075 34.75C109.908 34.5117 110.5 34.1634 109.66 32.6071C107.972 31.6989 107.546 32.0405 108.075 34.75Z"
                fill="#2C6E6B"
              />
              <path
                d="M111.245 33.1429C112.007 33.6975 113.989 32.2063 113.358 30.4643C112.541 31.0185 110.483 32.5882 111.245 33.1429Z"
                fill="#2C6E6B"
              />
              <path
                d="M117.057 29.3929C119.334 28.143 120.264 27.3242 119.698 25.1071C116.245 26.5763 115.403 27.4925 117.057 29.3929Z"
                fill="#2C6E6B"
              />
              <path
                d="M123.925 24.5714C127.721 22.7738 128.886 21.5904 126.566 18.6786C120.506 22.2848 121.184 23.249 123.925 24.5714Z"
                fill="#2C6E6B"
              />
              <path
                d="M130.264 25.1071C131.795 26.2785 140.365 27.236 138.189 17.0714C132.917 15.1883 128.734 23.9358 130.264 25.1071Z"
                fill="#2C6E6B"
              />
              <path
                d="M128.151 32.6071C131.106 33.3275 132.281 33.1561 132.377 30.4643C129.032 28.2725 128.606 29.635 128.151 32.6071Z"
                fill="#2C6E6B"
              />
              <path
                d="M136.075 32.6071C141.251 32.5784 143.747 32.0778 144 26.1786C136.868 27.1421 135.21 28.579 136.075 32.6071Z"
                fill="#2C6E6B"
              />
              <path
                d="M94.8679 76C98.4117 75.3608 99.2644 74.3465 97.5094 70.6429C94.5232 71.7962 94.2779 73.1291 94.8679 76Z"
                fill="#2C6E6B"
              />
              <path
                d="M102.792 70.1071C105.679 66.8857 105.278 65.5438 102.264 63.6786C100.623 67.3101 99.5407 69.4443 102.792 70.1071Z"
                fill="#2C6E6B"
              />
              <path
                d="M109.66 63.1429C113.03 63.1541 113.787 62.1691 113.358 58.8571C109.272 57.8411 108.451 58.7671 109.66 63.1429Z"
                fill="#2C6E6B"
              />
              <path
                d="M111.774 52.9643C116.426 54.1248 119.044 53.7141 118.113 49.2143C113.836 47.4025 111.768 49.284 111.774 52.9643Z"
                fill="#2C6E6B"
              />
              <path
                d="M123.396 44.3929C126.18 43.0467 126.629 41.9941 123.396 39.0357C120.106 42.6861 119.63 44.0842 123.396 44.3929Z"
                fill="#2C6E6B"
              />
              <path
                d="M88 48.6787C90.3085 48.5811 90.8849 48.1686 90.1132 46.5359C88.9034 45.4611 88.5063 46.2564 88 48.6787Z"
                stroke="#2C6E6B"
              />
              <path
                d="M93.283 40.643C94.8407 40.994 95.5826 40.9776 95.3962 38.5001C92.4753 39.221 91.2448 39.6476 93.283 40.643Z"
                stroke="#2C6E6B"
              />
              <path
                d="M96.9811 35.8216C97.9262 32.6619 96.9972 32.2874 94.8679 32.0716C93.5252 33.3854 92.3409 34.092 96.9811 35.8216Z"
                stroke="#2C6E6B"
              />
              <path
                d="M101.736 33.1429C104.377 33.6786 103.515 28.2683 101.208 25.6429C97.6838 30.9579 99.0943 32.6071 101.736 33.1429Z"
                stroke="#2C6E6B"
              />
              <path
                d="M109.66 29.9286C109.875 26.269 108.83 24.9352 105.434 23.5C105.988 27.6152 106.302 29.9186 109.66 29.9286Z"
                stroke="#2C6E6B"
              />
              <path
                d="M113.358 27.7857C117.061 23.6787 117.773 19.2323 111.774 16C108.497 20.7088 109.39 23.2744 113.358 27.7857Z"
                stroke="#2C6E6B"
              />
              <path
                d="M98.566 39.5714C100.597 39.1078 101.38 39.7907 101.736 41.7143C99.9773 42.0863 99.1071 42.0265 98.566 39.5714Z"
                stroke="#2C6E6B"
              />
              <path
                d="M103.321 37.4286C106.081 37.9811 106.452 37.2028 105.962 34.75C102.668 34.9025 102.293 35.5693 103.321 37.4286Z"
                stroke="#2C6E6B"
              />
              <path
                d="M108.075 34.75C109.908 34.5117 110.5 34.1634 109.66 32.6071C107.972 31.6989 107.546 32.0405 108.075 34.75Z"
                stroke="#2C6E6B"
              />
              <path
                d="M111.245 33.1429C112.007 33.6975 113.989 32.2063 113.358 30.4643C112.541 31.0185 110.483 32.5882 111.245 33.1429Z"
                stroke="#2C6E6B"
              />
              <path
                d="M117.057 29.3929C119.334 28.143 120.264 27.3242 119.698 25.1071C116.245 26.5763 115.403 27.4925 117.057 29.3929Z"
                stroke="#2C6E6B"
              />
              <path
                d="M123.925 24.5714C127.721 22.7738 128.886 21.5904 126.566 18.6786C120.506 22.2848 121.184 23.249 123.925 24.5714Z"
                stroke="#2C6E6B"
              />
              <path
                d="M130.264 25.1071C131.795 26.2785 140.365 27.236 138.189 17.0714C132.917 15.1883 128.734 23.9358 130.264 25.1071Z"
                stroke="#2C6E6B"
              />
              <path
                d="M128.151 32.6071C131.106 33.3275 132.281 33.1561 132.377 30.4643C129.032 28.2725 128.606 29.635 128.151 32.6071Z"
                stroke="#2C6E6B"
              />
              <path
                d="M136.075 32.6071C141.251 32.5784 143.747 32.0778 144 26.1786C136.868 27.1421 135.21 28.579 136.075 32.6071Z"
                stroke="#2C6E6B"
              />
              <path
                d="M94.8679 76C98.4117 75.3608 99.2644 74.3465 97.5094 70.6429C94.5232 71.7962 94.2779 73.1291 94.8679 76Z"
                stroke="#2C6E6B"
              />
              <path
                d="M102.792 70.1071C105.679 66.8857 105.278 65.5438 102.264 63.6786C100.623 67.3101 99.5407 69.4443 102.792 70.1071Z"
                stroke="#2C6E6B"
              />
              <path
                d="M109.66 63.1429C113.03 63.1541 113.787 62.1691 113.358 58.8571C109.272 57.8411 108.451 58.7671 109.66 63.1429Z"
                stroke="#2C6E6B"
              />
              <path
                d="M111.774 52.9643C116.426 54.1248 119.044 53.7141 118.113 49.2143C113.836 47.4025 111.768 49.284 111.774 52.9643Z"
                stroke="#2C6E6B"
              />
              <path
                d="M123.396 44.3929C126.18 43.0467 126.629 41.9941 123.396 39.0357C120.106 42.6861 119.63 44.0842 123.396 44.3929Z"
                stroke="#2C6E6B"
              />
            </g>

            <g id="Y-leaf6">
              <path
                d="M107.174 75.0924C108.3 72.3758 108.048 71.4252 105.093 71.3541C104.717 75.3471 105.492 75.4848 107.174 75.0924Z"
                fill="#2C6E6B"
              />
              <path
                d="M112.897 70.286C115.02 68.4472 114.9 67.2641 112.897 64.9457C110.85 68.2841 110.437 69.706 112.897 70.286Z"
                fill="#2C6E6B"
              />
              <path
                d="M117.06 64.4116C120.059 63.3076 120.267 62.1301 118.1 59.0713C115.714 58.4984 115.861 60.1706 117.06 64.4116Z"
                fill="#2C6E6B"
              />
              <path
                d="M121.222 56.9351C124.495 55.7855 124.825 54.9628 122.783 53.1969C117.973 54.6713 118.627 55.4864 121.222 56.9351Z"
                fill="#2C6E6B"
              />
              <path
                d="M129.026 50.5268C128.595 49.9963 130.368 47.3175 126.945 47.3226C126.052 50.6624 129.458 51.0573 129.026 50.5268Z"
                fill="#2C6E6B"
              />
              <path
                d="M134.229 44.6524C135.908 40.1085 135.204 38.8658 130.587 39.3121C128.77 45.2326 129.612 46.3479 134.229 44.6524Z"
                fill="#2C6E6B"
              />
              <path
                d="M135.269 38.778C136.972 39.1802 137.484 38.905 136.83 36.6418C135.086 35.4604 134.653 35.7658 135.269 38.778Z"
                fill="#2C6E6B"
              />
              <path
                d="M138.911 46.7885C142.933 45.3007 144.167 44.0913 143.594 40.9141C139.678 40.3527 138.213 41.0361 138.911 46.7885Z"
                fill="#2C6E6B"
              />
              <path
                d="M136.31 54.265C136.83 53.731 140.772 52.5014 139.432 50.5268C135.481 48.431 135.79 54.7991 136.31 54.265Z"
                fill="#2C6E6B"
              />
              <path
                d="M133.188 61.2075C136.528 59.6882 137.176 58.5128 134.229 55.3331C127.072 61.2297 126.877 62.5002 133.188 61.2075Z"
                fill="#2C6E6B"
              />
              <path
                d="M126.425 68.684C125.588 67.5214 125.453 66.7073 126.945 64.4117C132.28 64.2869 132.785 65.0222 126.425 68.684Z"
                fill="#2C6E6B"
              />
              <path
                d="M122.783 72.4222C124.344 72.4222 124.126 70.3517 122.783 69.218C120.574 70.4693 121.222 72.4222 122.783 72.4222Z"
                fill="#2C6E6B"
              />
              <path
                d="M138.911 64.9457C148.089 64.8213 149.508 56.7187 146.726 57.0813C140.66 56.5163 138.705 57.9439 138.911 64.9457Z"
                fill="#2C6E6B"
              />
              <path
                d="M135.79 73.4903C141.886 77.1906 144.879 78.6023 144.635 72.4222C139.445 68.8175 137.529 69.0971 135.79 73.4903Z"
                fill="#2C6E6B"
              />
              <path
                d="M133.709 75.0924C135.782 76.8067 135.891 77.7444 133.709 79.3647C131.967 77.949 131.444 77.0895 133.709 75.0924Z"
                fill="#2C6E6B"
              />
              <path
                d="M138.391 80.4328C140.401 81.3625 140.268 82.3026 137.871 84.7051C135.379 82.6367 134.957 81.6217 138.391 80.4328Z"
                fill="#2C6E6B"
              />
              <path
                d="M129.026 81.5009C130.83 79.2501 131.169 78.1112 128.592 76.74C126.307 76.2167 125.679 76.5573 129.026 81.5009Z"
                fill="#2C6E6B"
              />
              <path
                d="M131.627 85.7732C132.662 83.7499 132.234 83.0894 130.067 82.5689C128.859 86.5148 129.259 87.1309 131.627 85.7732Z"
                fill="#2C6E6B"
              />
              <path
                d="M121.742 83.103C124.536 83.2827 125.048 82.4003 123.823 78.8307C120.977 78.1455 120.27 78.7897 121.742 83.103Z"
                fill="#2C6E6B"
              />
              <path
                d="M116.539 78.6312C120.445 79.9507 116.019 83.9715 117.58 87.1757C111.467 91.5042 112.633 77.3116 116.539 78.6312Z"
                fill="#2C6E6B"
              />
              <path
                d="M146.716 56.9352C146.719 56.9842 146.726 57.0813 146.726 57.0813M146.726 57.0813C149.508 56.7187 148.089 64.8213 138.911 64.9457C138.705 57.9439 140.66 56.5163 146.726 57.0813ZM128.506 76.6945C128.535 76.7097 128.564 76.7249 128.592 76.74M128.592 76.74C131.169 78.1112 130.83 79.2501 129.026 81.5009C125.679 76.5573 126.307 76.2167 128.592 76.74ZM107.174 75.0924C108.3 72.3758 108.048 71.4252 105.093 71.3541C104.717 75.3471 105.492 75.4848 107.174 75.0924ZM112.897 70.286C115.02 68.4472 114.9 67.2641 112.897 64.9457C110.85 68.2841 110.437 69.706 112.897 70.286ZM117.06 64.4116C120.059 63.3076 120.267 62.1301 118.1 59.0713C115.714 58.4984 115.861 60.1706 117.06 64.4116ZM121.222 56.9351C124.495 55.7855 124.825 54.9628 122.783 53.1969C117.973 54.6713 118.627 55.4864 121.222 56.9351ZM129.026 50.5268C128.595 49.9963 130.368 47.3175 126.945 47.3226C126.052 50.6624 129.458 51.0573 129.026 50.5268ZM134.229 44.6524C135.908 40.1085 135.204 38.8658 130.587 39.3121C128.77 45.2326 129.612 46.3479 134.229 44.6524ZM135.269 38.778C136.972 39.1802 137.484 38.905 136.83 36.6418C135.086 35.4604 134.653 35.7658 135.269 38.778ZM138.911 46.7885C142.933 45.3007 144.167 44.0913 143.594 40.9141C139.678 40.3527 138.213 41.0361 138.911 46.7885ZM136.31 54.265C136.83 53.731 140.772 52.5014 139.432 50.5268C135.481 48.431 135.79 54.7991 136.31 54.265ZM133.188 61.2075C136.528 59.6882 137.176 58.5128 134.229 55.3331C127.072 61.2297 126.877 62.5002 133.188 61.2075ZM126.425 68.684C125.588 67.5214 125.453 66.7073 126.945 64.4117C132.28 64.2869 132.785 65.0222 126.425 68.684ZM122.783 72.4223C124.344 72.4223 124.126 70.3516 122.783 69.218C120.574 70.4693 121.222 72.4223 122.783 72.4223ZM135.79 73.4903C141.886 77.1906 144.879 78.6023 144.635 72.4223C139.445 68.8175 137.529 69.0971 135.79 73.4903ZM133.709 75.0924C135.782 76.8067 135.891 77.7444 133.709 79.3647C131.967 77.949 131.444 77.0895 133.709 75.0924ZM138.391 80.4328C140.401 81.3625 140.268 82.3026 137.871 84.7051C135.379 82.6367 134.957 81.6217 138.391 80.4328ZM131.627 85.7732C132.662 83.7499 132.234 83.0894 130.067 82.5689C128.859 86.5148 129.259 87.1309 131.627 85.7732ZM121.742 83.103C124.536 83.2827 125.048 82.4003 123.823 78.8307C120.977 78.1455 120.27 78.7897 121.742 83.103ZM116.539 78.6312C120.445 79.9507 116.019 83.9715 117.58 87.1757C111.467 91.5042 112.633 77.3116 116.539 78.6312Z"
                stroke="#2C6E6B"
              />
            </g>
          </g>
        </g>

        <defs>
          <clipPath id="clip0_12_32">
            <rect width="201" height="182" fill="white" />
          </clipPath>
        </defs>
      </svg>